<svg width="56" height="56" viewBox="0 0 56 56" fill="none" xmlns="http://www.w3.org/2000/svg">
<g filter="url(#filter0_d_146_4445)">
<rect x="12" y="9" width="32" height="32" rx="16" fill="white" shape-rendering="crispEdges"/>
<rect x="12.5" y="9.5" width="31" height="31" rx="15.5" stroke="#D9D9D9" shape-rendering="crispEdges"/>
<path d="M30.375 21.0669V20.0317C30.375 19.9419 30.2719 19.8924 30.2023 19.9473L24.1648 24.6629C24.1135 24.7028 24.0719 24.7539 24.0434 24.8123C24.0148 24.8706 24 24.9348 24 24.9998C24 25.0647 24.0148 25.1289 24.0434 25.1872C24.0719 25.2456 24.1135 25.2967 24.1648 25.3366L30.2023 30.0522C30.2732 30.1071 30.375 30.0576 30.375 29.9678V28.9326C30.375 28.8669 30.3442 28.804 30.2933 28.7638L25.4719 25.0004L30.2933 21.2357C30.3442 21.1955 30.375 21.1326 30.375 21.0669Z" fill="black"/>
</g>
<defs>
<filter id="filter0_d_146_4445" x="0" y="0" width="56" height="56" filterUnits="userSpaceOnUse" color-interpolation-filters="sRGB">
<feFlood flood-opacity="0" result="BackgroundImageFix"/>
<feColorMatrix in="SourceAlpha" type="matrix" values="0 0 0 0 0 0 0 0 0 0 0 0 0 0 0 0 0 0 127 0" result="hardAlpha"/>
<feOffset dy="3"/>
<feGaussianBlur stdDeviation="6"/>
<feComposite in2="hardAlpha" operator="out"/>
<feColorMatrix type="matrix" values="0 0 0 0 0 0 0 0 0 0 0 0 0 0 0 0 0 0 0.05 0"/>
<feBlend mode="normal" in2="BackgroundImageFix" result="effect1_dropShadow_146_4445"/>
<feBlend mode="normal" in="SourceGraphic" in2="effect1_dropShadow_146_4445" result="shape"/>
</filter>
</defs>
</svg>
