<svg width="60" height="60" viewBox="0 0 60 60" fill="none" xmlns="http://www.w3.org/2000/svg">
<path d="M30 31.25C30.6904 31.25 31.25 30.6904 31.25 30C31.25 29.3096 30.6904 28.75 30 28.75C29.3096 28.75 28.75 29.3096 28.75 30C28.75 30.6904 29.3096 31.25 30 31.25Z" fill="#3073D7" stroke="#3073D7" stroke-width="4.77838" stroke-linecap="round" stroke-linejoin="round"/>
<path d="M12.5 30C12.5 32.2981 12.9527 34.5738 13.8321 36.697C14.7116 38.8202 16.0006 40.7493 17.6256 42.3744C19.2507 43.9994 21.1798 45.2884 23.303 46.1679C25.4262 47.0474 27.7019 47.5 30 47.5M12.5 30C12.5 27.7019 12.9527 25.4262 13.8321 23.303C14.7116 21.1798 16.0006 19.2507 17.6256 17.6256C19.2507 16.0006 21.1798 14.7116 23.303 13.8321C25.4262 12.9527 27.7019 12.5 30 12.5M12.5 30H7.5M30 47.5C32.2981 47.5 34.5738 47.0474 36.697 46.1679C38.8202 45.2884 40.7493 43.9994 42.3744 42.3744C43.9994 40.7493 45.2884 38.8202 46.1679 36.697C47.0474 34.5738 47.5 32.2981 47.5 30M30 47.5V52.5M47.5 30C47.5 27.7019 47.0474 25.4262 46.1679 23.303C45.2884 21.1798 43.9994 19.2507 42.3744 17.6256C40.7493 16.0006 38.8202 14.7116 36.697 13.8321C34.5738 12.9527 32.2981 12.5 30 12.5M47.5 30H52.5M30 12.5V7.5" stroke="#3073D7" stroke-width="4.77838" stroke-linecap="round" stroke-linejoin="round"/>
</svg>
