<svg width="62" height="60" viewBox="0 0 62 60" fill="none" xmlns="http://www.w3.org/2000/svg">
<path d="M28.1115 22.3783C39.2188 22.3783 48.223 19.3545 48.223 15.6245C48.223 11.8944 39.2188 8.87061 28.1115 8.87061C17.0042 8.87061 8 11.8944 8 15.6245C8 19.3545 17.0042 22.3783 28.1115 22.3783Z" stroke="#3073D7" stroke-width="5" stroke-linecap="round" stroke-linejoin="round"/>
<path d="M8.00015 15.625V47.143C7.9877 48.2257 8.75053 49.2935 10.2243 50.2565C11.6981 51.2194 13.8397 52.0493 16.4685 52.6761C19.0973 53.3029 22.1363 53.7082 25.3294 53.858C28.5224 54.0078 31.7758 53.8976 34.8155 53.5367M48.2231 15.625V25.7558" stroke="#3073D7" stroke-width="5" stroke-linecap="round" stroke-linejoin="round"/>
<path d="M8 31.3838C8.00323 32.4363 8.73896 33.4741 10.1485 34.4142C11.558 35.3543 13.6023 36.1707 16.1183 36.7984C18.6342 37.4261 21.5522 37.8476 24.6394 38.0293C27.7266 38.211 30.8975 38.1479 33.8991 37.845" stroke="#3073D7" stroke-width="5" stroke-linecap="round" stroke-linejoin="round"/>
<path d="M49.5162 45.5162C48.2812 46.7511 47.4106 48.3025 47 50C46.5894 48.3025 45.7188 46.7511 44.4838 45.5162C43.2489 44.2812 41.6975 43.4106 40 43C41.6975 42.5894 43.2489 41.7188 44.4838 40.4838C45.7188 39.2489 46.5894 37.6975 47 36C47.4106 37.6975 48.2812 39.2489 49.5162 40.4838C50.7511 41.7188 52.3025 42.5894 54 43C52.3025 43.4106 50.7511 44.2812 49.5162 45.5162Z" stroke="#3073D7" stroke-width="5" stroke-linecap="round" stroke-linejoin="round"/>
</svg>
