<svg width="268" height="54" viewBox="0 0 268 54" fill="none" xmlns="http://www.w3.org/2000/svg">
<path d="M170.565 14.9844H181.401V52.4508H170.565V14.9844Z" fill="black"/>
<path d="M259.025 15.737L247.578 29.8567L240.618 38.4544L237.792 33.4061V41.9454L236.504 43.5351L227.33 35.768L237.792 22.8618L252.052 5.25757H257.918V15.737H259.025Z" fill="black"/>
<path d="M0.00643459 0.027832H18.9731C24.1945 0.027832 28.3213 0.501516 31.3408 1.4424C34.3667 2.38328 36.5879 4.01197 38.0042 6.32199C39.4206 8.6385 40.1353 11.8375 40.1353 15.9255V37.2283C40.1353 41.2124 39.4721 44.2881 38.1394 46.4683C36.8132 48.6486 34.6371 50.18 31.6112 51.0689C28.5853 51.9579 24.394 52.3991 19.0375 52.3991H0V0.027832H0.00643459ZM18.5611 43.4446C21.4905 43.4446 23.7052 43.2953 25.1924 43.0033C26.6796 42.7113 27.7547 42.1273 28.4243 41.2708C29.0874 40.4143 29.4222 39.0646 29.4222 37.2347V15.6854C29.4222 13.2131 28.5853 11.4741 26.9114 10.4813C25.2374 9.48854 22.5721 8.9889 18.9023 8.9889H10.7259V43.4446H18.5611Z" fill="#3073D7"/>
<path d="M48.8008 0.027832H59.5203V52.3991H48.8008V0.027832Z" fill="#3073D7"/>
<path d="M67.7746 51.7568V42.1533C75.5647 43.5549 80.8762 44.2492 83.7218 44.2492C89.6771 44.2492 92.658 42.4453 92.658 38.844V35.4568C92.658 33.7373 92.233 32.4201 91.3896 31.5051C90.5398 30.5902 89.0204 30.136 86.8186 30.136H81.5973C71.792 30.136 66.8926 25.5614 66.8926 16.4186V12.5448C66.8926 7.97018 68.5214 4.60897 71.7727 2.45468C75.0239 0.300393 80.1809 -0.770264 87.2371 -0.770264C90.9003 -0.770264 95.5551 -0.419865 101.188 0.280928V9.6443C94.2675 8.67747 89.5033 8.19081 86.8958 8.19081C83.2776 8.19081 80.8504 8.5412 79.6079 9.24199C78.2816 9.9947 77.6121 11.1757 77.6121 12.7914V16.503C77.6121 19.2478 79.5821 20.6169 83.5223 20.6169H88.8852C93.9713 20.6169 97.6604 21.72 99.9524 23.9262C102.244 26.1324 103.39 29.4936 103.39 34.0163V37.4878C103.39 43.7301 101.491 47.9543 97.6861 50.1605C95.8513 51.2896 93.8233 52.0877 91.6021 52.5419C89.3809 52.9961 86.7091 53.2297 83.5931 53.2297C79.331 53.2297 74.0646 52.7431 67.7875 51.7762L67.7746 51.7568Z" fill="#3073D7"/>
<path d="M123.965 52.9765C122.729 52.8273 121.493 52.5223 120.257 52.0681C118.873 51.6139 117.746 50.9845 116.883 50.1733C116.014 49.3622 115.312 48.2527 114.765 46.8381C114.173 45.3716 113.877 43.678 113.877 41.7573V22.5699H106.602V15.7436H113.877V-0.595215H124.712V15.7436H134.582V22.5699H124.712V39.8626C124.712 41.6341 124.86 42.9578 125.156 43.8467C125.452 44.7292 126.019 45.3651 126.862 45.7415C127.706 46.1178 128.987 46.3125 130.719 46.3125C131.408 46.3125 132.695 46.1892 134.575 45.9361V52.8403C132.251 53.0933 130.249 53.2166 128.562 53.2166C126.734 53.2166 125.195 53.1387 123.959 52.9895L123.965 52.9765Z" fill="black"/>
<path d="M140.808 15.7369H151.122V22.1803C151.122 21.0188 151.592 19.8767 152.532 18.7672C153.472 17.6576 154.669 16.7426 156.131 16.0354C157.592 15.3281 159.035 14.9712 160.47 14.9712H164.327V24.1464H160.618C157.554 24.1464 155.288 24.6266 153.826 25.5869C152.365 26.5473 151.637 28.1435 151.637 30.3627V52.4312H140.802V15.7239L140.808 15.7369Z" fill="black"/>
<path d="M204.257 53.0931C203.169 53.0153 201.83 52.879 200.252 52.6779C198.668 52.4767 197.368 52.1198 196.357 51.6137C195.34 51.1076 194.291 50.3484 193.202 49.3361C191.174 47.6166 190.157 44.6836 190.157 40.5373V28.3253C190.157 24.99 190.898 22.2063 192.385 19.9807C192.932 19.1696 193.73 18.4233 194.799 17.742C195.861 17.0607 196.937 16.5156 198.025 16.1133C198.913 15.8084 200.104 15.5553 201.585 15.3541C203.072 15.153 204.379 15.0232 205.519 14.9778H209.452C212.221 14.9778 215.858 15.432 220.358 16.3404V23.6209C215.259 22.4075 211.352 21.7975 208.635 21.7975C203.639 21.7975 201.141 23.5171 201.141 26.9562V40.4529C201.141 44.3462 203.883 46.2929 209.375 46.2929C212.047 46.2929 215.878 45.7348 220.88 44.6252V51.9057C216.38 52.7622 212.324 53.197 208.712 53.197C206.832 53.197 205.345 53.158 204.257 53.0802V53.0931Z" fill="black"/>
<path d="M258.136 18.8906V38.2533C258.136 40.2389 258.284 41.7248 258.58 42.7111C258.876 43.7039 259.443 44.4112 260.286 44.8329C261.129 45.2547 262.411 45.4688 264.143 45.4688C264.831 45.4688 266.119 45.3261 267.999 45.0471V52.7753C265.675 53.0608 263.673 53.197 261.986 53.197C260.157 53.197 258.619 53.1127 257.382 52.944C256.146 52.7753 254.91 52.4314 253.674 51.9252C252.29 51.4126 251.163 50.7053 250.301 49.8034C249.431 48.9014 248.73 47.6491 248.182 46.0658C247.59 44.4241 247.294 42.5294 247.294 40.3751V18.8841H258.129L258.136 18.8906ZM247.3 18.8906V-0.601807H258.136V18.8906H247.3Z" fill="#3073D7"/>
<path d="M260.725 52.4445H248.48L240.619 38.4546L237.793 33.4063L235.494 29.3118L235.591 29.1626H247.257L247.218 29.2275L247.579 29.8569L260.725 52.4445Z" fill="black"/>
<path d="M226.957 14.9844V52.4508H237.792V14.9844H226.957Z" fill="#3073D7"/>
<path d="M268 15.7373H247.836V22.5635H268V15.7373Z" fill="#3073D7"/>
<path d="M175.928 10.7991C178.89 10.7991 181.291 8.34428 181.291 5.31607C181.291 2.28786 178.89 -0.166992 175.928 -0.166992C172.966 -0.166992 170.565 2.28786 170.565 5.31607C170.565 8.34428 172.966 10.7991 175.928 10.7991Z" fill="black"/>
<path d="M232.379 10.6045C235.34 10.6045 237.742 8.14969 237.742 5.12148C237.742 2.09327 235.34 -0.361572 232.379 -0.361572C229.417 -0.361572 227.016 2.09327 227.016 5.12148C227.016 8.14969 229.417 10.6045 232.379 10.6045Z" fill="#3073D7"/>
</svg>
