<svg width="335" height="67" viewBox="0 0 335 67" fill="none" xmlns="http://www.w3.org/2000/svg">
<path d="M182.493 22.3293V18.3702H183.746C184.975 16.4093 185.583 13.4803 185.583 9.58322V7.46094H193.539V18.3702H195.115L194.904 22.3293H193.762V19.6237H183.895L183.647 22.3293H182.48H182.493ZM185.285 18.3702H192.161V8.71445H186.899V10.2907C186.899 11.8917 186.75 13.4306 186.464 14.9076C186.179 16.3845 185.782 17.5387 185.285 18.3702Z" fill="black"/>
<path d="M200.85 19.8227C199.584 19.8227 198.529 19.3883 197.66 18.5071C196.804 17.6383 196.369 16.5089 196.369 15.1313C196.369 13.7537 196.779 12.7112 197.598 11.8052C198.417 10.8991 199.447 10.4399 200.676 10.4399C201.904 10.4399 202.984 10.8867 203.729 11.7927C204.486 12.6987 204.858 13.8282 204.858 15.1934C204.858 15.3671 204.858 15.5285 204.846 15.665H197.722C197.809 16.5834 198.156 17.3032 198.752 17.8493C199.348 18.383 200.055 18.656 200.887 18.656C201.967 18.656 202.91 18.2341 203.716 17.3901L204.548 18.1348C203.543 19.2642 202.302 19.8227 200.85 19.8227ZM197.722 14.5976H203.505C203.419 13.7289 203.133 13.009 202.649 12.4381C202.153 11.8672 201.482 11.5818 200.639 11.5818C199.869 11.5818 199.224 11.8672 198.678 12.4257C198.132 12.9966 197.821 13.7165 197.722 14.5976Z" fill="black"/>
<path d="M207.202 19.624V10.6384H214.984V19.624H213.643V11.8175H208.53V19.624H207.189H207.202Z" fill="black"/>
<path d="M220.645 19.8097C219.727 19.8097 218.945 19.5615 218.287 19.0651C217.629 18.5686 217.294 17.8736 217.294 16.98C217.294 16.0368 217.641 15.3169 218.336 14.8081C219.031 14.2992 219.962 14.0386 221.129 14.0386C222.06 14.0386 222.966 14.1627 223.872 14.4233V14.1503C223.872 13.356 223.636 12.7603 223.177 12.3383C222.718 11.9163 222.06 11.7177 221.216 11.7177C220.372 11.7177 219.429 11.9287 218.485 12.3631L218.088 11.2709C219.205 10.7621 220.285 10.5015 221.352 10.5015C222.631 10.5015 223.599 10.8366 224.257 11.4943C224.877 12.1149 225.2 12.9961 225.2 14.1379V19.6236H223.872V18.2832C223.077 19.3009 221.998 19.8097 220.645 19.8097ZM220.906 18.73C221.737 18.73 222.445 18.5066 223.028 18.0474C223.611 17.6006 223.897 17.0173 223.897 16.3098V15.4783C223.015 15.2177 222.147 15.0935 221.278 15.0935C220.459 15.0935 219.813 15.2549 219.354 15.59C218.895 15.9251 218.659 16.3719 218.659 16.9428C218.659 17.5137 218.883 17.9233 219.305 18.2459C219.739 18.5686 220.273 18.73 220.918 18.73H220.906Z" fill="black"/>
<path d="M228.028 22.404V10.6383H229.369V12.4503C230.275 11.1223 231.417 10.4521 232.807 10.4521C233.948 10.4521 234.954 10.8741 235.81 11.7305C236.666 12.5868 237.101 13.7162 237.101 15.1435C237.101 16.5708 236.679 17.6754 235.81 18.5317C234.954 19.3881 233.948 19.8225 232.807 19.8225C231.392 19.8225 230.25 19.1895 229.369 17.9112V22.4164H228.028V22.404ZM232.558 18.6186C233.464 18.6186 234.209 18.3083 234.817 17.6754C235.413 17.0424 235.723 16.1985 235.723 15.1311C235.723 14.0638 235.413 13.257 234.805 12.6241C234.197 11.9787 233.44 11.656 232.558 11.656C231.677 11.656 230.933 11.9911 230.287 12.6489C229.642 13.3067 229.319 14.1382 229.319 15.1559C229.319 16.1736 229.642 16.9928 230.287 17.6505C230.933 18.3083 231.69 18.631 232.558 18.631V18.6186Z" fill="black"/>
<path d="M241.396 19.624V11.8175H238.182V10.6384H245.963V11.8175H242.749V19.624H241.396Z" fill="black"/>
<path d="M250.232 19.8097C249.313 19.8097 248.532 19.5615 247.874 19.0651C247.216 18.5686 246.881 17.8736 246.881 16.98C246.881 16.0368 247.228 15.3169 247.923 14.8081C248.618 14.2992 249.549 14.0386 250.716 14.0386C251.647 14.0386 252.553 14.1627 253.459 14.4233V14.1503C253.459 13.356 253.223 12.7603 252.764 12.3383C252.304 11.9163 251.647 11.7177 250.803 11.7177C249.959 11.7177 249.016 11.9287 248.072 12.3631L247.675 11.2709C248.792 10.7621 249.872 10.5015 250.939 10.5015C252.218 10.5015 253.186 10.8366 253.843 11.4943C254.464 12.1149 254.787 12.9961 254.787 14.1379V19.6236H253.459V18.2832C252.664 19.3009 251.585 19.8097 250.232 19.8097ZM250.492 18.73C251.324 18.73 252.031 18.5066 252.615 18.0474C253.198 17.6006 253.484 17.0173 253.484 16.3098V15.4783C252.602 15.2177 251.734 15.0935 250.865 15.0935C250.046 15.0935 249.4 15.2549 248.941 15.59C248.482 15.9251 248.246 16.3719 248.246 16.9428C248.246 17.5137 248.469 17.9233 248.891 18.2459C249.326 18.5686 249.86 18.73 250.505 18.73H250.492Z" fill="black"/>
<path d="M257.617 19.624V10.6384H258.883L262.234 15.367L265.585 10.6384H266.876V19.624H265.523V12.7731L262.209 17.328L258.933 12.7731V19.624H257.63H257.617Z" fill="black"/>
<path d="M273.787 19.8227C272.521 19.8227 271.466 19.3883 270.597 18.5071C269.741 17.6383 269.307 16.5089 269.307 15.1313C269.307 13.7537 269.716 12.7112 270.535 11.8052C271.354 10.8991 272.385 10.4399 273.613 10.4399C274.842 10.4399 275.922 10.8867 276.666 11.7927C277.423 12.6987 277.796 13.8282 277.796 15.1934C277.796 15.3671 277.796 15.5285 277.783 15.665H270.659C270.746 16.5834 271.094 17.3032 271.69 17.8493C272.285 18.383 272.993 18.656 273.824 18.656C274.904 18.656 275.847 18.2341 276.654 17.3901L277.485 18.1348C276.48 19.2642 275.239 19.8227 273.787 19.8227ZM270.659 14.5976H276.443C276.356 13.7289 276.071 13.009 275.587 12.4381C275.09 11.8672 274.42 11.5818 273.576 11.5818C272.807 11.5818 272.161 11.8672 271.615 12.4257C271.069 12.9966 270.746 13.7165 270.659 14.5976Z" fill="black"/>
<path d="M280.144 19.624V10.6384H281.484V14.5107H286.659V10.6384H288V19.624H286.659V15.7021H281.484V19.624H280.144Z" fill="black"/>
<path d="M293.163 19.624V11.8175H289.948V10.6384H297.73V11.8175H294.516V19.624H293.163Z" fill="black"/>
<path d="M183.82 37.719V28.7334H185.161V35.8325L190.497 28.7334H191.801V37.719H190.46V30.6199L185.111 37.719H183.82Z" fill="black"/>
<path d="M194.78 37.719V28.7334H196.121V32.6056H201.296V28.7334H202.636V37.719H201.296V33.7971H196.121V37.719H194.78Z" fill="black"/>
<path d="M210.29 41.1694V37.6571C209.57 38.2776 208.825 38.5755 208.043 38.5755C206.951 38.5755 206.07 38.1535 205.4 37.3096C204.73 36.4656 204.395 35.3238 204.395 33.8593C204.395 32.3948 204.73 31.2902 205.4 30.4587C206.07 29.6271 206.951 29.2052 208.043 29.2052C208.825 29.2052 209.57 29.5279 210.29 30.1732V26.2141H211.643V30.1732C212.362 29.5279 213.107 29.2052 213.889 29.2052C214.994 29.2052 215.875 29.6271 216.545 30.4711C217.215 31.315 217.55 32.4569 217.55 33.8965C217.55 35.3362 217.215 36.4656 216.533 37.3096C215.85 38.1535 214.969 38.5755 213.889 38.5755C213.393 38.5755 212.983 38.501 212.66 38.3397C212.338 38.1783 212.002 37.9549 211.643 37.6571V41.1694H210.29ZM208.329 37.3964C209.086 37.3964 209.731 37.0986 210.29 36.5153V31.3026C209.731 30.7069 209.086 30.4214 208.329 30.4214C207.497 30.4214 206.864 30.7317 206.43 31.3647C206.008 31.9852 205.785 32.854 205.785 33.9586C205.785 36.267 206.629 37.4213 208.316 37.4213L208.329 37.3964ZM213.628 37.3964C215.316 37.3964 216.16 36.2298 216.16 33.9089C216.16 32.8168 215.949 31.9604 215.515 31.3523C215.093 30.7317 214.46 30.4214 213.616 30.4214C212.859 30.4214 212.201 30.7193 211.63 31.3026V36.5153C212.201 37.111 212.859 37.3964 213.616 37.3964H213.628Z" fill="black"/>
<path d="M228.239 36.5403C227.333 37.4587 226.216 37.9179 224.889 37.9179C223.561 37.9179 222.444 37.4587 221.562 36.5403C220.681 35.6218 220.234 34.5173 220.234 33.2265C220.234 31.9358 220.681 30.8312 221.587 29.9128C222.481 28.9944 223.598 28.5352 224.926 28.5352C226.254 28.5352 227.371 28.9944 228.264 29.9004C229.158 30.8188 229.605 31.9234 229.605 33.2141C229.605 34.5049 229.158 35.6094 228.252 36.5279L228.239 36.5403ZM224.926 36.7264C225.881 36.7264 226.676 36.3913 227.296 35.7211C227.917 35.0509 228.227 34.2194 228.227 33.2389C228.227 32.2585 227.904 31.4393 227.259 30.7567C226.614 30.0741 225.832 29.7266 224.889 29.7266C223.945 29.7266 223.139 30.0617 222.53 30.7443C221.922 31.4269 221.612 32.2585 221.612 33.2389C221.612 34.2194 221.935 35.0385 222.568 35.7211C223.201 36.4037 223.995 36.7388 224.926 36.7388V36.7264Z" fill="black"/>
<path d="M232.013 40.4989V28.7333H233.353V30.5453C234.259 29.2173 235.401 28.5471 236.791 28.5471C237.933 28.5471 238.938 28.9691 239.794 29.8255C240.651 30.6818 241.085 31.8112 241.085 33.2385C241.085 34.6658 240.663 35.7703 239.794 36.6267C238.938 37.4831 237.933 37.9174 236.791 37.9174C235.376 37.9174 234.234 37.2845 233.353 36.0061V40.5113H232.013V40.4989ZM236.543 36.7136C237.449 36.7136 238.193 36.4033 238.802 35.7703C239.397 35.1374 239.708 34.2934 239.708 33.2261C239.708 32.1587 239.397 31.352 238.789 30.719C238.181 30.0737 237.424 29.751 236.543 29.751C235.662 29.751 234.917 30.0861 234.271 30.7439C233.626 31.4017 233.303 32.2332 233.303 33.2509C233.303 34.2686 233.626 35.0877 234.271 35.7455C234.917 36.4033 235.674 36.726 236.543 36.726V36.7136Z" fill="black"/>
<path d="M243.541 37.719V28.7334H244.807L248.158 33.462L251.509 28.7334H252.8V37.719H251.447V30.8681L248.133 35.4229L244.857 30.8681V37.719H243.553H243.541Z" fill="black"/>
<path d="M258.461 37.9047C257.543 37.9047 256.761 37.6565 256.103 37.16C255.445 36.6636 255.11 35.9686 255.11 35.075C255.11 34.1318 255.458 33.4119 256.153 32.9031C256.848 32.3942 257.779 32.1336 258.945 32.1336C259.876 32.1336 260.782 32.2577 261.688 32.5183V32.2453C261.688 31.451 261.452 30.8552 260.993 30.4333C260.534 30.0113 259.876 29.8127 259.032 29.8127C258.188 29.8127 257.245 30.0237 256.302 30.4581L255.905 29.3659C257.022 28.8571 258.101 28.5964 259.169 28.5964C260.447 28.5964 261.415 28.9315 262.073 29.5893C262.693 30.2099 263.016 31.0911 263.016 32.2329V37.7185H261.688V36.3781C260.894 37.3959 259.814 37.9047 258.461 37.9047ZM258.722 36.8249C259.554 36.8249 260.261 36.6015 260.844 36.1423C261.428 35.6955 261.713 35.1122 261.713 34.4048V33.5733C260.832 33.3126 259.963 33.1885 259.094 33.1885C258.275 33.1885 257.63 33.3499 257.171 33.685C256.711 34.0201 256.476 34.4669 256.476 35.0378C256.476 35.6087 256.699 36.0182 257.121 36.3409C257.555 36.6636 258.089 36.8249 258.734 36.8249H258.722Z" fill="black"/>
<path d="M268.017 37.719V29.9124H264.803V28.7334H272.584V29.9124H269.37V37.719H268.017Z" fill="black"/>
<path d="M274.532 37.719V28.7334H275.873V35.8325L281.209 28.7334H282.513V37.719H281.172V30.6199L275.823 37.719H274.532Z" fill="black"/>
<path d="M288.348 37.9297C286.97 37.9297 285.729 37.4829 284.637 36.5893L285.319 35.5964C286.238 36.3783 287.243 36.763 288.323 36.763C288.931 36.763 289.465 36.6265 289.899 36.341C290.333 36.0556 290.557 35.6708 290.557 35.162C290.557 34.7028 290.358 34.3305 289.961 34.0822C289.564 33.8216 289.005 33.6851 288.298 33.6851H287.094V32.5929H288.31C288.906 32.5929 289.378 32.4564 289.75 32.1709C290.122 31.8855 290.309 31.5131 290.309 31.0539C290.309 30.6444 290.122 30.3217 289.762 30.0859C289.403 29.8377 288.931 29.726 288.36 29.726C287.293 29.726 286.387 30.0238 285.63 30.632L284.972 29.6887C285.94 28.9317 287.107 28.5593 288.447 28.5593C289.44 28.5593 290.234 28.7827 290.817 29.2295C291.401 29.6763 291.699 30.2472 291.699 30.9547C291.699 31.9351 291.215 32.6301 290.259 33.0273C291.376 33.4244 291.922 34.1567 291.922 35.2365C291.922 35.9935 291.599 36.6265 290.954 37.1602C290.309 37.6814 289.44 37.9545 288.36 37.9545L288.348 37.9297Z" fill="black"/>
<path d="M297.071 37.9047C296.152 37.9047 295.37 37.6565 294.713 37.16C294.055 36.6636 293.72 35.9686 293.72 35.075C293.72 34.1318 294.067 33.4119 294.762 32.9031C295.457 32.3942 296.388 32.1336 297.555 32.1336C298.486 32.1336 299.392 32.2577 300.298 32.5183V32.2453C300.298 31.451 300.062 30.8552 299.603 30.4333C299.143 30.0113 298.486 29.8127 297.642 29.8127C296.798 29.8127 295.854 30.0237 294.911 30.4581L294.514 29.3659C295.631 28.8571 296.711 28.5964 297.778 28.5964C299.056 28.5964 300.025 28.9315 300.682 29.5893C301.303 30.2099 301.626 31.0911 301.626 32.2329V37.7185H300.298V36.3781C299.503 37.3959 298.424 37.9047 297.071 37.9047ZM297.331 36.8249C298.163 36.8249 298.87 36.6015 299.454 36.1423C300.037 35.6955 300.322 35.1122 300.322 34.4048V33.5733C299.441 33.3126 298.572 33.1885 297.704 33.1885C296.885 33.1885 296.239 33.3499 295.78 33.685C295.321 34.0201 295.085 34.4669 295.085 35.0378C295.085 35.6087 295.308 36.0182 295.73 36.3409C296.165 36.6636 296.698 36.8249 297.344 36.8249H297.331Z" fill="black"/>
<path d="M312.2 39.9532V37.7068H304.455V28.7212H305.795V36.5277H310.834V28.7212H312.175V36.5277H313.528L313.317 39.9532H312.2Z" fill="black"/>
<path d="M315.365 37.719V28.7334H316.706V35.8325L322.042 28.7334H323.346V37.719H322.005V30.6199L316.656 37.719H315.365Z" fill="black"/>
<path d="M326.325 37.719V28.7334H327.666V35.8325L333.002 28.7334H334.305V37.719H332.965V30.6199L327.616 37.719H326.325Z" fill="black"/>
<path d="M183.82 55.8142V46.8286H185.161V53.9277L190.497 46.8286H191.801V55.8142H190.46V48.7151L185.111 55.8142H183.82Z" fill="black"/>
<path d="M204.036 56.0253C202.733 56.0253 201.641 55.5661 200.76 54.6477C199.878 53.7293 199.432 52.6247 199.432 51.3339C199.432 50.0432 199.878 48.9386 200.76 48.0202C201.641 47.1018 202.733 46.6426 204.036 46.6426C205.426 46.6426 206.618 47.1763 207.635 48.2436L206.791 49.1496C205.96 48.2684 205.041 47.834 204.024 47.834C203.118 47.834 202.361 48.1691 201.74 48.8517C201.12 49.5343 200.809 50.3659 200.809 51.3464C200.809 52.3268 201.12 53.146 201.752 53.8286C202.385 54.5112 203.167 54.8463 204.111 54.8463C205.054 54.8463 205.972 54.3995 206.816 53.4935L207.697 54.3126C206.655 55.4668 205.439 56.0501 204.036 56.0501V56.0253Z" fill="black"/>
<path d="M209.91 55.8142V46.8286H214.254C215.147 46.8286 215.855 47.0272 216.388 47.4368C216.922 47.8463 217.183 48.38 217.183 49.075C217.183 50.0307 216.686 50.7257 215.693 51.1476C217.009 51.5076 217.667 52.2522 217.667 53.3692C217.667 54.1263 217.369 54.722 216.786 55.1564C216.19 55.6032 215.396 55.8142 214.403 55.8142H209.897H209.91ZM211.25 50.6884H214.018C214.576 50.6884 215.011 50.5643 215.346 50.3161C215.681 50.0679 215.842 49.708 215.842 49.2488C215.842 48.864 215.681 48.5662 215.371 48.3304C215.06 48.0945 214.614 47.9828 214.055 47.9828H211.263V50.6884H211.25ZM211.25 54.6724H214.241C214.874 54.6724 215.383 54.5359 215.755 54.2752C216.128 54.0022 216.314 53.6423 216.314 53.1582C216.314 52.7239 216.115 52.3763 215.731 52.1281C215.346 51.8799 214.787 51.7682 214.068 51.7682H211.25V54.6724Z" fill="black"/>
<path d="M219.292 55.8142L222.035 52.3391C221.327 52.1778 220.756 51.8551 220.31 51.3835C219.863 50.9119 219.639 50.3286 219.639 49.6335C219.639 48.802 219.937 48.1194 220.545 47.6105C221.154 47.1017 221.973 46.8411 223.028 46.8411H227.247V55.8266H225.907V52.5625H223.425C223.326 52.6991 222.966 53.1707 222.345 53.9898C221.737 54.7965 221.265 55.4171 220.943 55.8266H219.292V55.8142ZM223.127 51.4207H225.907V48.0201H223.09C222.432 48.0201 221.911 48.169 221.538 48.4669C221.166 48.7648 220.98 49.1743 220.98 49.6956C220.98 50.2169 221.178 50.6512 221.576 50.9615C221.973 51.2718 222.494 51.4331 223.127 51.4331V51.4207Z" fill="black"/>
<path d="M233.082 56.0251C231.704 56.0251 230.463 55.5783 229.371 54.6847L230.054 53.6918C230.972 54.4737 231.965 54.8585 233.057 54.8585C233.665 54.8585 234.199 54.722 234.633 54.4365C235.068 54.151 235.291 53.7663 235.291 53.2574C235.291 52.7982 235.093 52.4259 234.695 52.1777C234.298 51.9171 233.74 51.7805 233.032 51.7805H231.828V50.6884H233.045C233.64 50.6884 234.112 50.5518 234.484 50.2664C234.857 49.9809 235.043 49.6086 235.043 49.1494C235.043 48.7398 234.857 48.4171 234.497 48.1813C234.137 47.9331 233.665 47.8214 233.094 47.8214C232.027 47.8214 231.121 48.1193 230.364 48.7274L229.706 47.7842C230.674 47.0271 231.841 46.6548 233.181 46.6548C234.174 46.6548 234.968 46.8782 235.552 47.325C236.135 47.7718 236.433 48.3427 236.433 49.0501C236.433 50.0306 235.949 50.7256 234.993 51.1228C236.11 51.5199 236.656 52.2522 236.656 53.3319C236.656 54.089 236.334 54.7219 235.688 55.2556C235.043 55.7769 234.174 56.0499 233.094 56.0499L233.082 56.0251Z" fill="black"/>
<path d="M239.137 55.8142V46.8286H240.477V53.9277L245.814 46.8286H247.117V55.8142H245.777V48.7151L240.427 55.8142H239.137Z" fill="black"/>
<path d="M255.531 55.8144V43.6516H256.909V50.9121L263.896 43.6516H265.671L260.458 48.9635L265.894 55.8144H264.169L259.49 49.9316L256.909 52.5503V55.8144H255.531Z" fill="black"/>
<path d="M272.881 56.2614V54.921C270.945 54.921 269.444 54.4493 268.351 53.4937C267.272 52.538 266.726 51.2721 266.726 49.6711C266.726 48.0701 267.272 46.8042 268.351 45.8609C269.431 44.9177 270.945 44.4461 272.881 44.4461V43.2422H274.259V44.4461C276.195 44.4461 277.697 44.9177 278.789 45.8609C279.869 46.8042 280.415 48.0825 280.415 49.6711C280.415 51.2597 279.869 52.538 278.789 53.4937C277.709 54.4369 276.195 54.921 274.259 54.921V56.2614H272.881ZM272.881 53.6674V45.6872C271.38 45.6872 270.213 46.0347 269.394 46.7173C268.575 47.4123 268.165 48.3928 268.165 49.6835C268.165 50.9743 268.575 51.9547 269.394 52.6373C270.213 53.3199 271.38 53.6674 272.881 53.6674ZM274.259 53.6674C275.761 53.6674 276.927 53.3323 277.747 52.6373C278.566 51.9547 278.975 50.9743 278.975 49.6835C278.975 48.3928 278.566 47.4123 277.747 46.7173C276.927 46.0223 275.761 45.6872 274.259 45.6872V53.6674Z" fill="black"/>
<path d="M284.35 56.0254C283.63 56.0254 282.948 55.8516 282.302 55.5165L282.836 54.4244C283.283 54.6726 283.804 54.7843 284.387 54.7843C285.368 54.7843 286.187 54.1762 286.82 52.9599L281.471 43.6516H283.035L287.515 51.5947L291.387 43.6516H292.876L288.061 53.2577C287.143 55.0946 285.901 56.0254 284.35 56.0254Z" fill="black"/>
<path d="M133.269 2.91821C141.001 2.91821 148.274 5.93409 153.735 11.3949C165.016 22.6766 165.016 41.0449 153.735 52.3265C148.261 57.7997 141.001 60.8032 133.269 60.8032C125.537 60.8032 118.264 57.7873 112.803 52.3265C101.522 41.0449 101.522 22.6766 112.803 11.3949C118.276 5.92168 125.537 2.91821 133.269 2.91821ZM133.269 0.200195C125.165 0.200195 117.06 3.29054 110.879 9.47123C98.5181 21.8326 98.5181 41.8888 110.879 54.2502C117.06 60.4309 125.165 63.5212 133.269 63.5212C141.373 63.5212 149.478 60.4309 155.658 54.2502C168.02 41.8888 168.02 21.8326 155.658 9.47123C149.478 3.29054 141.373 0.200195 133.269 0.200195Z" fill="black"/>
<path d="M105.071 43.093L103.793 41.8147L120.163 25.4445V17.5015H121.975V26.1892L105.071 43.093Z" fill="black"/>
<path d="M107.975 50.0309C107.74 50.0309 107.516 49.944 107.33 49.7703C106.982 49.4228 106.982 48.8394 107.33 48.4919L128.913 26.9092C129.26 26.5616 129.508 26.8843 129.856 27.2443C130.203 27.5918 130.539 27.84 130.191 28.1875L108.608 49.7703C108.435 49.944 108.199 50.0309 107.963 50.0309H107.975Z" fill="black"/>
<path d="M112.841 55.5286L111.562 54.2379L139.45 26.3503V17.5137H141.262V27.1074L112.841 55.5286Z" fill="black"/>
<path d="M119.369 58.4702L118.078 57.1919L138.829 36.4407H147.641V38.2527H139.574L119.369 58.4702Z" fill="black"/>
<path d="M124.223 62.1934C123.988 62.1934 123.764 62.1065 123.578 61.9327C123.231 61.5852 123.231 61.0019 123.578 60.6544L136.001 48.231H143.088C143.585 48.231 143.572 48.6405 143.572 49.137C143.572 49.6334 143.597 50.043 143.088 50.043H136.746L124.856 61.9327C124.683 62.1065 124.447 62.1934 124.211 62.1934H124.223Z" fill="black"/>
<path d="M145.024 51.7933C144.428 51.7933 143.82 51.5575 143.361 51.1107C142.442 50.1923 142.442 48.7029 143.361 47.7845C144.279 46.8661 145.768 46.8661 146.687 47.7845C147.605 48.7029 147.605 50.1923 146.687 51.1107C146.228 51.5699 145.619 51.7933 145.024 51.7933ZM145.024 47.9955C144.651 47.9955 144.279 48.132 144.006 48.4175C143.733 48.6905 143.584 49.0504 143.584 49.4352C143.584 49.8199 143.733 50.1798 144.006 50.4653C144.552 51.0114 145.508 51.0114 146.054 50.4653C146.612 49.8944 146.612 48.9884 146.054 48.4175C145.768 48.132 145.396 47.9955 145.024 47.9955Z" fill="black"/>
<path d="M130.95 28.3734C130.354 28.3734 129.746 28.1375 129.286 27.6907C128.368 26.7723 128.368 25.283 129.286 24.3646C130.205 23.4462 131.694 23.4462 132.613 24.3646C133.531 25.283 133.531 26.7723 132.613 27.6907C132.153 28.15 131.545 28.3734 130.95 28.3734ZM130.95 24.5756C130.565 24.5756 130.205 24.7245 129.919 24.9976C129.634 25.2706 129.497 25.6305 129.497 26.0277C129.497 26.4248 129.646 26.7723 129.919 27.0454C130.49 27.6163 131.409 27.6039 131.967 27.0454C132.526 26.4869 132.526 25.5685 131.967 24.9976C131.694 24.7245 131.334 24.5756 130.95 24.5756Z" fill="black"/>
<path d="M151.924 40.2258C153.384 40.2258 154.567 39.0423 154.567 37.5823C154.567 36.1223 153.384 34.9387 151.924 34.9387C150.464 34.9387 149.28 36.1223 149.28 37.5823C149.28 39.0423 150.464 40.2258 151.924 40.2258Z" fill="black"/>
<path d="M121.282 16.0991C122.742 16.0991 123.926 14.9156 123.926 13.4556C123.926 11.9956 122.742 10.812 121.282 10.812C119.822 10.812 118.639 11.9956 118.639 13.4556C118.639 14.9156 119.822 16.0991 121.282 16.0991Z" fill="black"/>
<path d="M142.33 11.4569C143.36 12.487 143.36 14.1625 142.33 15.1926C141.299 16.2227 139.624 16.2227 138.594 15.1926C137.564 14.1625 137.564 12.487 138.594 11.4569C139.624 10.4268 141.299 10.4268 142.33 11.4569Z" fill="black"/>
<path d="M0 -1.5V43.4279H0.012411C0.136521 46.2949 1.00529 49.1742 2.4822 51.8674C3.99635 54.6475 6.15587 57.2414 8.81183 59.4381C11.4306 61.6225 14.5457 63.4345 17.9836 64.6756C21.198 65.8422 24.7103 66.5 28.3716 66.5H28.7812C32.4672 66.4504 36.0044 65.6933 39.2437 64.4149C42.7312 63.0497 45.8711 61.0888 48.5023 58.7679C51.0093 56.5464 53.0447 54.0145 54.4596 51.3585C55.8496 48.7646 56.6563 46.059 56.7432 43.4279H56.7556V-1.5H0ZM55.2787 42.9563C55.2787 45.4385 54.5589 48.0324 53.2433 50.5394C51.9029 53.0837 49.942 55.5286 47.5342 57.6633C45.0272 59.8725 42.0361 61.7466 38.71 63.0497C35.632 64.266 32.2687 64.9859 28.7563 65.0355H28.3716C24.8841 65.0355 21.5455 64.4025 18.48 63.298C15.2035 62.1189 12.2497 60.3938 9.74265 58.3087C7.16116 56.174 5.07611 53.6422 3.64884 50.949C2.2464 48.3178 1.47691 45.5254 1.47691 42.7577V-0.0230881H55.2787V42.9563Z" fill="black"/>
<path d="M20.4666 58.3829H21.2733V56.0745L21.3602 55.6773L21.0871 56.0248L20.5659 56.3848L20.2432 55.9504L21.5711 54.8706H22.0055V58.3829H22.7998V59.0283H20.4666V58.3829Z" fill="black"/>
<path d="M27.1305 57.3158C27.0064 57.1544 26.8327 57.0055 26.5968 56.869C26.7954 56.7325 26.9444 56.5959 27.0436 56.4346C27.1429 56.2733 27.1926 56.0871 27.1926 55.8513C27.1926 55.7023 27.1678 55.5658 27.1057 55.4417C27.0436 55.3176 26.9692 55.2183 26.8699 55.1314C26.7706 55.0446 26.6465 54.9825 26.4976 54.9329C26.3486 54.8832 26.1997 54.8584 26.0135 54.8584C25.8274 54.8584 25.6536 54.8832 25.5047 54.9453C25.3557 54.9949 25.2192 55.0694 25.1199 55.1687C25.0082 55.268 24.9338 55.3797 24.8717 55.5162C24.8097 55.6527 24.7848 55.7892 24.7848 55.9382C24.7848 56.174 24.8345 56.3725 24.9462 56.5215C25.0579 56.6828 25.2068 56.8193 25.393 56.9435C25.2937 57.0055 25.1944 57.0676 25.1075 57.1296C25.0206 57.2041 24.9462 57.2785 24.8841 57.3654C24.8221 57.4523 24.7724 57.5516 24.7352 57.6633C24.698 57.775 24.6855 57.8867 24.6855 58.0232C24.6855 58.1846 24.7104 58.3335 24.7724 58.47C24.8345 58.6065 24.9214 58.7182 25.0331 58.8051C25.1448 58.9044 25.2813 58.9664 25.4302 59.0285C25.5916 59.0781 25.7653 59.103 25.9639 59.103C26.1625 59.103 26.3362 59.0781 26.4976 59.0161C26.6589 58.954 26.7954 58.8796 26.9195 58.7803C27.0312 58.681 27.1305 58.5569 27.1926 58.4204C27.2546 58.2838 27.2919 58.1225 27.2919 57.9487C27.2919 57.6881 27.2298 57.4771 27.1181 57.3158H27.1305ZM25.6536 55.6403C25.7281 55.5534 25.8646 55.5038 26.0259 55.5038C26.1625 55.5038 26.2742 55.541 26.3734 55.6279C26.4727 55.7148 26.5224 55.8389 26.5224 56.0002C26.5224 56.236 26.4107 56.4594 26.1749 56.658C26.088 56.6208 26.0135 56.5711 25.9391 56.5339C25.8646 56.4842 25.7901 56.4346 25.7405 56.385C25.6784 56.3353 25.6288 56.2733 25.5916 56.1988C25.5543 56.1243 25.5419 56.0499 25.5419 55.9506C25.5419 55.8265 25.5791 55.7272 25.666 55.6403H25.6536ZM26.4355 58.3459C26.3238 58.4328 26.1873 58.47 26.0135 58.47C25.8274 58.47 25.6784 58.4204 25.5667 58.3087C25.455 58.197 25.4054 58.0604 25.4054 57.9115C25.4054 57.7874 25.4426 57.6757 25.5047 57.5516C25.5667 57.4275 25.7033 57.3158 25.877 57.2041C25.9639 57.2537 26.0508 57.3034 26.1252 57.353C26.2121 57.4027 26.2866 57.4647 26.3486 57.5144C26.4231 57.5764 26.4727 57.6385 26.51 57.7129C26.5472 57.7874 26.572 57.8743 26.572 57.9612C26.572 58.1349 26.5224 58.259 26.4107 58.3459H26.4355Z" fill="black"/>
<path d="M31.548 55.3797C31.3246 55.0322 30.9647 54.8584 30.4683 54.8584C30.0091 54.8584 29.6616 55.0322 29.4133 55.3797C29.1651 55.7272 29.041 56.2608 29.041 56.9807C29.041 57.7005 29.1527 58.197 29.3885 58.5569C29.6119 58.9292 29.9718 59.103 30.4559 59.103C30.9151 59.103 31.2626 58.9292 31.5108 58.5817C31.759 58.2342 31.8831 57.7005 31.8831 56.9807C31.8831 56.2608 31.7714 55.7272 31.5356 55.3797H31.548ZM30.9771 58.1101C30.8654 58.3459 30.7041 58.47 30.4683 58.47C30.2325 58.47 30.0587 58.3459 29.9594 58.0853C29.8601 57.8246 29.8105 57.4647 29.8105 56.9807C29.8105 56.4842 29.8601 56.1119 29.9594 55.8637C30.0587 55.6279 30.2325 55.5038 30.4683 55.5038C30.7165 55.5038 30.8903 55.6279 30.9895 55.8885C31.0888 56.1491 31.1385 56.5091 31.1385 56.9807C31.1385 57.5019 31.0888 57.8743 30.9771 58.1101Z" fill="black"/>
<path d="M35.8673 57.2782V54.9077H35.2467L33.3975 57.452V57.8864H35.1598V59.0282H35.8673V57.8864H36.5126V57.2782H35.8673ZM35.1598 56.3846V57.2782H34.4648L34.0925 57.3279L34.3779 57.1045L34.9861 56.3226L35.1846 55.9006H35.2095L35.1598 56.3846Z" fill="black"/>
<path d="M27.901 26.4994C27.9755 26.4994 28.0499 26.4746 28.1244 26.4622C29.5765 29.4905 33.7094 31.2652 36.9114 31.1163C46.2817 30.6695 53.5173 22.714 53.0706 13.3561C53.0457 12.8349 52.9961 12.3012 52.9216 11.7923L37.6064 13.9518C36.9983 14.0139 36.477 14.1877 35.9185 14.4731C35.0994 14.9696 34.5285 15.5653 34.2554 16.794C33.9824 18.0227 34.4788 19.6609 35.6207 20.4676C35.6082 20.5421 36.626 21.1254 37.0603 21.2868C36.7625 22.652 33.4363 25.0969 30.5197 25.7547V25.432C32.6917 23.8931 34.181 21.0137 34.181 18.4074C34.181 14.8579 31.7112 12.053 28.4347 11.4076L28.0499 11.3455C24.9844 10.9111 21.4845 11.3207 18.3818 11.3455L19.4243 14.1504C18.4935 13.0831 16.8924 12.5122 15.6265 13.3809C13.9014 14.56 13.8269 13.9394 12.5113 13.6664C13.3056 14.9696 13.8021 16.4341 15.6761 16.0369C17.364 15.6894 18.1087 14.2745 19.8214 15.2426L20.926 18.1468L26.8088 18.122L27.0322 18.6929C21.1866 18.8542 16.4332 23.4215 15.9864 29.1926H15.552L14.6212 25.7423L10.3766 23.1856C9.95467 22.8133 9.44582 22.5403 8.88732 22.4038L9.55752 13.5423L11.2082 11.4572H7.48488C9.27206 8.88815 11.2206 10.4271 13.8393 9.80657C16.7063 9.13637 16.458 6.77828 16.7311 4.445C15.2169 5.57441 15.3286 6.43077 12.9705 6.18255C13.1319 5.53717 13.1443 4.79251 13.2312 4.04785C12.0273 4.94145 12.2383 5.59923 9.95467 5.21449C7.68345 4.82975 6.00796 7.38642 6.38029 9.38459C6.93879 8.46618 7.49729 8.13108 8.11784 8.03179C7.43523 9.04949 7.07531 10.303 7.18701 11.4572H4.39453L6.0452 13.5547L6.7278 22.6147C5.47429 23.1857 4.59311 24.5012 4.59311 25.8044C4.59311 27.4923 5.87144 28.5596 7.21183 29.0312L7.2863 30.0241V30.2351H8.304V30.1855V30.1606L8.53981 27.0703H7.0629L7.12496 27.9515H6.6161C5.39982 26.1519 6.85191 25.5934 9.1976 25.7051L10.2649 28.5224C10.6993 28.1749 11.0344 27.7281 11.2702 27.2192L16.5946 33.8095C17.1406 35.3733 18.0094 36.7881 19.1388 37.9672L21.0501 35.2243H21.5466L18.3942 45.1532C17.786 44.123 16.669 43.428 15.3783 43.428C13.4546 43.428 11.8908 45.0415 11.8908 46.9155C11.8908 48.7896 13.467 50.2417 15.2666 50.3782C15.3659 50.2913 15.3659 49.919 15.2666 49.8197C14.162 48.8889 12.4741 46.6177 17.3765 47.0396L18.2452 49.3357L25.183 39.8785C26.7964 39.9281 28.6953 39.7916 30.8797 39.4317L35.8937 38.8484C35.8937 38.8484 35.9682 38.8484 36.0054 38.836L36.3901 38.7863V38.8111C38.078 38.8484 39.4308 40.2384 39.4308 41.9263C39.4308 43.6142 38.0408 45.0415 36.3157 45.0415C34.5905 45.0415 33.2005 43.6514 33.2005 41.9263C33.2005 41.3306 33.3743 40.7721 33.6597 40.3005L27.8389 39.9033L27.5163 39.8537C27.4294 40.3749 27.3797 40.9086 27.3797 41.4547C27.3797 46.7666 31.6864 51.0732 36.9983 51.0732C42.3102 51.0732 46.6168 46.7666 46.6168 41.4547C46.6168 36.1428 42.3102 31.8361 36.9983 31.8361C35.993 31.8361 35.0125 31.9975 34.1065 32.2829L34.876 31.1659C30.0481 30.384 25.878 28.8078 26.3744 26.7724C26.8585 26.6483 27.3673 26.549 27.9258 26.487L27.901 26.4994ZM20.02 15.0813C19.9083 14.8082 19.7594 14.5476 19.5732 14.3118H25.6174C27.1688 18.4198 22.527 15.528 20.02 15.0813Z" fill="black"/>
<path d="M23.654 5.9592H25.1681V6.31912H25.6521V7.49817C25.3419 7.62228 25.1309 7.93255 25.1309 8.28006C25.1309 8.65239 25.3791 8.97508 25.7142 9.08678H25.7266H25.739H25.7514H25.7763C26.2479 9.08678 26.6202 8.71445 26.6202 8.24283V8.21801V8.19319V8.16836V8.14354C26.6202 8.14354 26.6202 8.10631 26.6202 8.0939V8.06907V8.04425V8.03184V8.00702C26.583 7.8705 26.5085 7.7588 26.4092 7.65951V7.6471V7.63469V7.62228H26.3968V7.60987C26.3968 7.60987 26.372 7.59746 26.372 7.58505C26.372 7.58505 26.3472 7.57263 26.3348 7.56022C26.3348 7.56022 26.3099 7.54781 26.2975 7.5354H26.2851V7.312C26.2851 6.61699 26.8932 5.71098 27.5883 5.68616L28.879 5.64893L27.0422 10.4768H21.7675L19.9307 5.67375H21.1594C21.8544 5.69857 22.4625 6.61699 22.4625 7.312V7.5354C22.2888 7.60987 22.1522 7.74639 22.0654 7.92014V7.93255V7.95738V7.9822V8.00702V8.01943C22.0654 8.05666 22.0405 8.08149 22.0405 8.11872C22.0405 8.11872 22.0405 8.16836 22.0281 8.2056C22.0281 8.2056 22.0281 8.23042 22.0281 8.24283V8.26765V8.29247C22.0281 8.76409 22.4005 9.13642 22.8721 9.13642H22.8969H22.9217C23.2816 9.03713 23.5423 8.71445 23.5423 8.32971C23.5423 7.9822 23.3313 7.67192 23.021 7.54781V6.36876H23.505V6.00885L23.654 5.9592Z" fill="black"/>
<path d="M44.8025 35.0505C48.8734 33.3998 52.6463 30.6445 53.5027 23.7812C52.696 27.1695 50.946 29.0435 48.7368 30.0861C46.3787 31.203 43.4994 31.352 40.7441 31.3768C42.6058 32.1835 43.8593 33.3377 44.8025 35.0505Z" fill="black"/>
<path d="M80.8708 -0.780029V65.0604H79.4062V-0.780029H80.8708Z" fill="black"/>
</svg>
