<svg width="119" height="32" viewBox="0 0 119 32" fill="none" xmlns="http://www.w3.org/2000/svg">
<path d="M2.62838 6.37086H8.13681C8.09549 5.82434 7.98347 5.32107 7.79891 4.86288C7.61434 4.40469 7.3655 4.01183 7.05147 3.68337C6.73744 3.35491 6.34811 3.09821 5.88441 2.9142C5.41978 2.72927 4.89456 2.63726 4.30782 2.63726C3.57048 2.63726 2.92864 2.71639 2.38322 2.8728C1.83687 3.03013 1.39337 3.20494 1.05179 3.39631L0.4577 1.01612C0.935177 0.769548 1.5357 0.561615 2.25926 0.390484C2.98282 0.219354 3.69903 0.133789 4.40974 0.133789C5.35184 0.133789 6.22232 0.264436 7.02025 0.523892C7.81911 0.784269 8.50777 1.21118 9.08809 1.80645C9.66841 2.40173 10.122 3.17458 10.4498 4.125C10.7776 5.07542 10.9411 6.23469 10.9411 7.60281C10.9411 9.02522 10.7501 10.2158 10.3681 11.1726C9.98612 12.1304 9.47375 12.8959 8.83191 13.4709C8.19007 14.0451 7.45274 14.4554 6.62082 14.702C5.78799 14.9486 4.92119 15.0709 4.02041 15.0709C3.24267 15.0709 2.53564 15.0019 1.90115 14.8657C1.26666 14.7296 0.757958 14.5713 0.375977 14.3938L1.11331 11.9519C1.42734 12.1028 1.85065 12.2427 2.38322 12.3724C2.91579 12.5021 3.53008 12.5674 4.22609 12.5674C4.75866 12.5674 5.24991 12.492 5.70076 12.342C6.15161 12.1921 6.55012 11.9556 6.89813 11.6345C7.24613 11.3134 7.52987 10.9058 7.74749 10.4136C7.96602 9.92136 8.10192 9.32608 8.15702 8.62868H2.62838V6.37086Z" fill="white"/>
<path d="M17.7852 6.88246H15.7578C15.6761 7.85404 15.5806 8.81826 15.4713 9.77512C15.362 10.7329 15.1876 11.5913 14.9488 12.3504C14.7101 13.1094 14.386 13.7249 13.9764 14.1969C13.5669 14.6689 13.0343 14.9044 12.3796 14.9044C11.5881 14.9044 11.028 14.8032 10.7002 14.6017L11.028 12.4221C11.2465 12.504 11.4513 12.5454 11.6423 12.5454C11.915 12.5454 12.1547 12.4286 12.3594 12.1949C12.5642 11.9612 12.7377 11.5416 12.8819 10.9372C13.0251 10.3318 13.1408 9.51015 13.2299 8.47232C13.319 7.4345 13.3833 6.1179 13.4246 4.52344H20.4481V14.7821H17.7861V6.88246H17.7852Z" fill="white"/>
<path d="M30.9513 13.9016C30.5418 14.2301 29.9854 14.507 29.2829 14.7325C28.5796 14.9579 27.8321 15.071 27.0406 15.071C25.3887 15.071 24.1804 14.5889 23.4164 13.6247C22.6515 12.6605 22.2695 11.3374 22.2695 9.65466C22.2695 7.84951 22.6993 6.49518 23.5596 5.59261C24.42 4.69003 25.6275 4.23828 27.1839 4.23828C27.7027 4.23828 28.2077 4.30729 28.6989 4.44345C29.1902 4.58054 29.6273 4.80596 30.0093 5.12062C30.3912 5.43528 30.6979 5.85942 30.9311 6.39306C31.1635 6.92669 31.2792 7.59005 31.2792 8.38314C31.2792 8.6702 31.2617 8.97842 31.2277 9.30688C31.1938 9.63534 31.1423 9.9776 31.0744 10.3327H24.9517C24.9921 11.1948 25.2134 11.8444 25.6146 12.2823C26.0159 12.7203 26.666 12.9393 27.5631 12.9393C28.1205 12.9393 28.6209 12.8537 29.0626 12.6826C29.5051 12.5114 29.8412 12.3375 30.0726 12.1591L30.9513 13.9016ZM27.1517 6.37189C26.4594 6.37189 25.947 6.58075 25.6137 6.99753C25.2813 7.41524 25.0811 7.97187 25.0132 8.66928H28.8009C28.855 7.93047 28.743 7.3628 28.4648 6.96625C28.1875 6.57063 27.7495 6.37189 27.1517 6.37189Z" fill="white"/>
<path d="M36.5441 10.5351H35.8279V14.7821H33.165V4.52344H35.827V8.89371L36.4615 8.60665L38.8571 4.52344H41.7036L39.2262 8.42172L38.1822 9.20101L39.3291 10.0015L42.0939 14.7821H39.0417L36.5441 10.5351Z" fill="white"/>
<path d="M50.5507 6.88338H47.6638V14.7821H44.9201V6.88338H42.0332V4.52344H50.5516V6.88338H50.5507Z" fill="white"/>
<path d="M51.7334 4.52534H53.6791L53.9858 5.75638H54.0675C54.422 5.23654 54.8425 4.8538 55.3264 4.60722C55.8112 4.36065 56.4017 4.23828 57.0977 4.23828C58.3804 4.23828 59.3427 4.64587 59.9846 5.4592C60.6264 6.27345 60.9469 7.58269 60.9469 9.38784C60.9469 10.2637 60.8449 11.0531 60.6402 11.7579C60.4354 12.4627 60.1315 13.0607 59.7293 13.5529C59.3262 14.0452 58.8349 14.4215 58.2546 14.6809C57.6743 14.9404 57.0086 15.071 56.2584 15.071C55.8351 15.071 55.4871 15.0407 55.2144 14.979C54.9408 14.9174 54.668 14.818 54.3953 14.6819V18.8884H51.7334V4.52534ZM56.2997 6.49518C55.7809 6.49518 55.3751 6.62491 55.0812 6.88529C54.7874 7.14566 54.5588 7.53485 54.3953 8.05468V12.3219C54.5863 12.4728 54.7948 12.5924 55.0197 12.6807C55.2447 12.77 55.5422 12.8141 55.9104 12.8141C56.6744 12.8141 57.2483 12.5446 57.6302 12.0036C58.0122 11.4635 58.2032 10.571 58.2032 9.3262C58.2032 8.42362 58.0526 7.72622 57.7524 7.23307C57.453 6.74084 56.9691 6.49518 56.2997 6.49518Z" fill="white"/>
<path d="M62.3037 9.65558C62.3037 7.91851 62.727 6.58167 63.5736 5.64413C64.4202 4.70751 65.6075 4.23828 67.1363 4.23828C67.9554 4.23828 68.6652 4.36801 69.2657 4.62838C69.8662 4.88876 70.3648 5.25402 70.7606 5.72601C71.1563 6.198 71.4529 6.76936 71.6512 7.43916C71.8487 8.10988 71.9478 8.84777 71.9478 9.65466C71.9478 11.3917 71.5282 12.7295 70.6889 13.6661C69.8497 14.6027 68.6652 15.072 67.1363 15.072C66.3173 15.072 65.6075 14.9422 65.007 14.6819C64.4064 14.4224 63.9042 14.0562 63.502 13.5842C63.0989 13.1122 62.7986 12.5418 62.6012 11.8711C62.4029 11.2013 62.3037 10.4625 62.3037 9.65558ZM65.0474 9.65558C65.0474 10.1073 65.0887 10.5241 65.1704 10.9069C65.2521 11.2896 65.3752 11.6254 65.5386 11.9125C65.7021 12.1995 65.9178 12.4222 66.1832 12.5795C66.4495 12.7369 66.7672 12.8151 67.1354 12.8151C67.8314 12.8151 68.3502 12.562 68.6918 12.056C69.0325 11.55 69.2042 10.7495 69.2042 9.65558C69.2042 8.7116 69.0472 7.94979 68.7331 7.36832C68.4191 6.78684 67.8865 6.4961 67.1363 6.4961C66.4807 6.4961 65.9693 6.74268 65.6001 7.23491C65.2319 7.72714 65.0474 8.53403 65.0474 9.65558Z" fill="white"/>
<path d="M79.7848 10.7403H76.4471V14.7821H73.7852V4.52344H76.4471V8.38032H79.7848V4.52344H82.4468V14.7821H79.7848V10.7403Z" fill="white"/>
<path d="M90.7848 10.7403H87.4471V14.7821H84.7852V4.52344H87.4471V8.38032H90.7848V4.52344H93.4468V14.7821H90.7848V10.7403Z" fill="white"/>
<path d="M98.447 8.17405C98.7748 8.11977 99.1054 8.08205 99.4406 8.06089C99.7748 8.04065 100.079 8.03053 100.351 8.03053C101.047 8.03053 101.628 8.10965 102.091 8.26606C102.555 8.42339 102.931 8.64604 103.218 8.9331C103.505 9.22016 103.709 9.55874 103.832 9.94884C103.955 10.3389 104.017 10.7594 104.017 11.2102C104.017 11.8258 103.935 12.3658 103.771 12.8314C103.607 13.2969 103.341 13.6824 102.972 13.9907C102.604 14.298 102.125 14.5307 101.539 14.6881C100.952 14.8454 100.228 14.9236 99.368 14.9236C98.5903 14.9236 97.9172 14.9098 97.3507 14.8822C96.7841 14.8546 96.2617 14.8205 95.7842 14.7791V4.52051H98.4461V8.17405H98.447ZM98.447 12.5443C98.8566 12.6262 99.2459 12.6676 99.6141 12.6676C100.228 12.6676 100.658 12.5544 100.904 12.329C101.15 12.1036 101.272 11.7512 101.272 11.2728C101.272 10.8349 101.149 10.5036 100.904 10.2773C100.658 10.0519 100.249 9.93872 99.6756 9.93872C99.2248 9.93872 98.8152 9.98657 98.447 10.0823V12.5443ZM105.183 4.52235H107.845V14.781H105.183V4.52235Z" fill="white"/>
<path d="M116.333 10.1043L116.436 8.64785H116.374L115.494 10.1457L111.849 14.7828H110.17V4.52415H112.832V9.40689L112.709 10.8017H112.791L113.63 9.34525L117.316 4.52415H118.995V14.7828H116.333V10.1043ZM113.487 0.337891C113.582 0.871524 113.743 1.24783 113.968 1.4668C114.193 1.68577 114.483 1.79526 114.838 1.79526C115.22 1.79526 115.524 1.68577 115.749 1.4668C115.974 1.24783 116.127 0.878884 116.21 0.359052L118.237 0.872444C118.074 1.76214 117.671 2.42182 117.029 2.85241C116.387 3.28299 115.637 3.49829 114.777 3.49829C114.353 3.49829 113.944 3.45044 113.548 3.35476C113.152 3.25907 112.797 3.10542 112.483 2.89289C112.169 2.68128 111.903 2.41078 111.684 2.08232C111.466 1.75386 111.316 1.35087 111.233 0.871524L113.487 0.337891Z" fill="white"/>
<path d="M3.85609 26.7761L4.2142 28.0044H4.28307L4.55854 26.7347L6.40417 21.6836H7.57491L5.13702 27.963C4.8891 28.6162 4.67056 29.1618 4.48324 29.5979C4.29501 30.035 4.10494 30.3892 3.91211 30.6606C3.71928 30.932 3.51268 31.1252 3.29231 31.2402C3.07193 31.3552 2.80106 31.4132 2.47968 31.4132C2.17666 31.4132 1.93609 31.3874 1.75611 31.3368C1.57706 31.2862 1.40903 31.2108 1.25385 31.1096L1.59818 30.1573C1.78182 30.2585 1.9517 30.3229 2.10779 30.3505C2.26389 30.3781 2.40622 30.3919 2.53477 30.3919C2.79187 30.3919 3.00766 30.2613 3.18212 29.9991C3.35658 29.7369 3.50809 29.3486 3.63664 28.8334L0.0693359 21.6845H1.39158L3.85609 26.7761Z" fill="white"/>
<path d="M14.5328 26.9141H9.9049V31.3442H8.76172V21.6836H9.9049V25.8929H14.5328V21.6836H15.676V31.3442H14.5328V26.9141Z" fill="white"/>
<path d="M23.9116 24.8026L23.9942 23.6985H23.9392L23.3469 24.8302L18.6915 31.3442H18.0166V21.6836H19.1598V28.308L19.0634 29.3983H19.1185L19.7245 28.2666L24.3799 21.6836H25.0548V31.3442H23.9116V24.8026Z" fill="white"/>
<path d="M33.2137 23.8898C33.2137 24.1198 33.177 24.3545 33.1035 24.5937C33.0301 24.8329 32.9199 25.0555 32.773 25.2626C32.6261 25.4696 32.4378 25.6517 32.2083 25.8082C31.9787 25.9646 31.7078 26.0842 31.3956 26.167V26.2222C31.6711 26.2682 31.9346 26.3464 32.1872 26.4568C32.4397 26.5672 32.6619 26.719 32.8556 26.9122C33.0485 27.1054 33.2045 27.34 33.3239 27.6161C33.4433 27.8921 33.503 28.2187 33.503 28.5959C33.503 29.0928 33.4001 29.5233 33.1926 29.8858C32.986 30.2493 32.7151 30.5464 32.38 30.7765C32.0448 31.0065 31.661 31.1767 31.2304 31.2871C30.7988 31.3975 30.3581 31.4527 29.9081 31.4527C29.752 31.4527 29.5684 31.4527 29.3572 31.4527C29.146 31.4527 28.9256 31.4453 28.6961 31.4315C28.4665 31.4177 28.237 31.3993 28.0074 31.3763C27.7778 31.3533 27.5758 31.3193 27.4014 31.2733V21.7645C27.7411 21.7093 28.1359 21.6633 28.5859 21.6265C29.0358 21.5897 29.5271 21.5713 30.0596 21.5713C30.4177 21.5713 30.7832 21.6017 31.1542 21.6615C31.526 21.7213 31.863 21.8363 32.167 22.0065C32.47 22.1767 32.7197 22.4141 32.9171 22.7177C33.1155 23.0204 33.2137 23.4114 33.2137 23.8898ZM29.2608 25.9324C29.4169 25.9324 29.6051 25.9278 29.8255 25.9186C30.0459 25.9094 30.2295 25.8956 30.3764 25.8772C30.5968 25.8036 30.8034 25.7143 30.9962 25.6076C31.189 25.5018 31.3608 25.3776 31.5123 25.235C31.6638 25.0923 31.7831 24.9267 31.8704 24.7381C31.9576 24.5495 32.0008 24.3453 32.0008 24.1235C32.0008 23.8199 31.9438 23.5697 31.8281 23.3718C31.7134 23.174 31.56 23.0158 31.3672 22.8962C31.1744 22.7766 30.954 22.6919 30.7061 22.6404C30.4581 22.5898 30.2056 22.565 29.9485 22.565C29.6455 22.565 29.3673 22.5714 29.1148 22.5861C28.8623 22.5999 28.6713 22.6211 28.5436 22.6478V25.9324H29.2608ZM30.0183 30.459C30.3121 30.459 30.5968 30.4241 30.8723 30.356C31.1477 30.2879 31.3911 30.1766 31.6022 30.0248C31.8134 29.873 31.9806 29.6871 32.1045 29.4663C32.2285 29.2455 32.2909 28.9833 32.2909 28.6797C32.2909 28.3024 32.2147 27.9988 32.0641 27.7688C31.9126 27.5388 31.7152 27.3594 31.4719 27.2306C31.2285 27.1018 30.9558 27.0143 30.6528 26.9683C30.3498 26.9223 30.0468 26.8993 29.7438 26.8993H28.5455V30.3634C28.6098 30.3818 28.7016 30.3956 28.8209 30.4048C28.9403 30.414 29.0689 30.4232 29.2066 30.4324C29.3443 30.4416 29.4867 30.4489 29.6336 30.4535C29.7796 30.4572 29.9081 30.459 30.0183 30.459Z" fill="white"/>
<path d="M35.4365 21.6836H40.6842V22.7049H36.5797V25.8653H40.3398V26.8865H36.5797V30.3229H40.753V31.3442H35.4365V21.6836Z" fill="white"/>
<path d="M42.8223 21.7783C43.1712 21.6955 43.5477 21.6403 43.9517 21.6127C44.3557 21.5851 44.7551 21.5713 45.15 21.5713C45.5724 21.5713 46.0012 21.6127 46.4382 21.6955C46.8744 21.7783 47.272 21.9301 47.6292 22.1509C47.9873 22.3717 48.2784 22.6754 48.5042 23.0618C48.7292 23.4482 48.8412 23.9404 48.8412 24.5385C48.8412 25.1273 48.7356 25.6241 48.5244 26.029C48.3133 26.4338 48.0332 26.7632 47.6843 27.0162C47.3353 27.2692 46.9359 27.4514 46.486 27.5609C46.0361 27.6713 45.5723 27.7265 45.0949 27.7265C45.049 27.7265 44.9728 27.7265 44.8681 27.7265C44.7625 27.7265 44.6523 27.7246 44.5375 27.7191C44.4227 27.7145 44.3107 27.7081 44.2005 27.6979C44.0903 27.6887 44.0123 27.6795 43.9664 27.6703V31.3414H42.8232V21.7783H42.8223ZM45.1775 22.565C44.9388 22.565 44.7092 22.5696 44.4888 22.5788C44.2685 22.588 44.094 22.611 43.9655 22.6478V26.65C44.0114 26.6684 44.0848 26.6804 44.1858 26.685C44.2868 26.6896 44.3924 26.6942 44.5026 26.6988C44.6128 26.7034 44.7184 26.7061 44.8194 26.7061C44.9204 26.7061 44.9939 26.7061 45.0398 26.7061C45.352 26.7061 45.6614 26.6767 45.969 26.616C46.2766 26.5562 46.5549 26.4485 46.8019 26.2921C47.0498 26.1357 47.25 25.9149 47.4015 25.6297C47.553 25.3444 47.6283 24.981 47.6283 24.5394C47.6283 24.1622 47.5566 23.8475 47.4152 23.5945C47.2729 23.3415 47.0847 23.1391 46.8505 22.9873C46.6164 22.8354 46.3519 22.7278 46.059 22.6634C45.7652 22.5972 45.4713 22.565 45.1775 22.565Z" fill="white"/>
<path d="M56.4537 30.9445C56.1782 31.1561 55.8293 31.3033 55.4069 31.3861C54.9845 31.4689 54.5346 31.5103 54.0571 31.5103C53.4786 31.5103 52.9369 31.411 52.4319 31.2141C51.9268 31.0162 51.4861 30.7154 51.1096 30.3096C50.7332 29.9048 50.4347 29.3877 50.2144 28.7566C49.994 28.1263 49.8838 27.3793 49.8838 26.5135C49.8838 25.6118 50.005 24.8463 50.2483 24.2152C50.4917 23.5849 50.813 23.0697 51.2125 22.6695C51.6119 22.2693 52.0591 21.9776 52.5549 21.7936C53.0507 21.6096 53.5558 21.5176 54.07 21.5176C54.6209 21.5176 55.0708 21.5479 55.4198 21.6068C55.7687 21.6666 56.0671 21.7476 56.315 21.8479L56.0396 22.8691C55.5988 22.6483 54.9698 22.5379 54.1526 22.5379C53.7761 22.5379 53.4043 22.6069 53.037 22.7449C52.6697 22.8829 52.341 23.1084 52.0526 23.4212C51.7634 23.734 51.5311 24.1434 51.3566 24.6495C51.1822 25.1555 51.0949 25.7765 51.0949 26.5126C51.0949 27.175 51.1776 27.7546 51.3428 28.2515C51.5081 28.7483 51.7358 29.1623 52.0242 29.4936C52.3134 29.8248 52.6532 30.0732 53.0434 30.2388C53.4336 30.4044 53.8579 30.4872 54.3179 30.4872C54.7311 30.4872 55.091 30.4458 55.3986 30.363C55.7063 30.2802 55.9652 30.1744 56.1773 30.0456L56.4537 30.9445Z" fill="white"/>
<path d="M64.0493 24.8026L64.1319 23.6985H64.0768L63.4846 24.8302L58.8292 31.3442H58.1543V21.6836H59.2975V28.308L59.2011 29.3983H59.2562L59.8622 28.2666L64.5176 21.6836H65.1925V31.3442H64.0493V24.8026Z" fill="white"/>
<path d="M73.7587 22.7049H70.7561V31.3442H69.6129V22.7049H66.6104V21.6836H73.7587V22.7049Z" fill="white"/>
<path d="M75.1719 21.6836H80.4195V22.7049H76.3151V25.8653H80.0752V26.8865H76.3151V30.3229H80.4884V31.3442H75.1719V21.6836Z" fill="white"/>
<path d="M88.7841 22.7049H85.7815V31.3442H84.6383V22.7049H81.6357V21.6836H88.7841V22.7049Z" fill="white"/>
</svg>
