<svg width="9" height="8" viewBox="0 0 9 8" fill="none" xmlns="http://www.w3.org/2000/svg">
<path d="M3.8335 0.0324335C4.36485 -0.0893803 5.02997 0.140079 5.38102 0.565881L5.79117 1.06969C5.854 1.14597 5.96529 1.18452 6.06223 1.16235C6.30996 1.10556 6.56573 1.1002 6.81498 1.14885C7.06429 1.19754 7.30253 1.29374 7.51332 1.4382C7.72323 1.57906 7.89733 1.76262 8.03784 1.97985L8.02981 1.97742C8.17034 2.19469 8.25995 2.43569 8.30239 2.68679L8.57235 4.79101C8.75911 5.91972 8.20549 6.75299 7.08874 7.00901L3.05195 7.93447C1.92802 8.192 1.0661 7.67892 0.743776 6.56975L0.0800071 4.5825C-0.0699609 4.07642 -0.00717102 3.54036 0.253577 3.09507C0.513558 2.64629 0.934487 2.33792 1.43716 2.22268C1.53749 2.19947 1.61683 2.11677 1.64289 2.01644L1.78738 1.39402C1.91685 0.854153 2.41869 0.356935 2.95007 0.234965L3.8335 0.0324335ZM3.12273 0.955498C2.86784 1.01417 2.57666 1.30804 2.5117 1.56852L2.36409 2.19593C2.26903 2.57271 1.97941 2.85832 1.60982 2.94321C1.30816 3.01237 1.05601 3.19882 0.898761 3.4692C0.737937 3.74041 0.69753 4.0593 0.789843 4.36318L1.45353 6.35473C1.67284 7.11325 2.14178 7.39156 2.89231 7.2195L6.9291 6.29403C7.67235 6.12356 7.975 5.66406 7.8488 4.89924L7.85995 4.89669L7.58828 2.78965C7.56418 2.65153 7.50776 2.50559 7.42454 2.37347C7.34141 2.24152 7.23319 2.13029 7.10812 2.04567C6.97927 1.9618 6.83688 1.90308 6.68641 1.87332C6.53603 1.8436 6.38564 1.84832 6.23489 1.88288C5.86145 1.96841 5.48002 1.83627 5.23111 1.54185L4.82026 1.035C4.64823 0.828727 4.26115 0.694508 4.00616 0.752966L3.12273 0.955498ZM3.97393 2.66598C4.86444 2.46183 5.75346 3.0251 5.95867 3.91909C6.16368 4.81334 5.60891 5.70847 4.71826 5.91266C3.82766 6.11673 2.93829 5.55272 2.73329 4.65853C2.52858 3.7645 3.08712 2.8694 3.97393 2.66598ZM4.13856 3.38409C3.6468 3.49693 3.33827 3.99469 3.45241 4.49367C3.56684 4.99281 4.06167 5.30723 4.55363 5.19456C5.04564 5.08176 5.35501 4.58292 5.24056 4.08372C5.12593 3.58479 4.63043 3.27132 4.13856 3.38409Z" fill="white"/>
</svg>
