<svg width="8" height="5" viewBox="0 0 8 5" fill="none" xmlns="http://www.w3.org/2000/svg">
<path opacity="0.5" d="M6.08599 -0.000279688C6.28355 -0.00702522 6.44891 0.147975 6.45579 0.345531L6.45462 0.630091C6.4501 0.734916 6.4398 0.838749 6.42643 0.941597L7.22047 1.19637C7.40161 1.25445 7.49963 1.46027 7.43888 1.65574C7.37788 1.85124 7.1812 1.96262 7.00001 1.90473L6.25423 1.66587C6.12811 2.02244 5.94449 2.35044 5.7129 2.63559L6.2749 3.16352C6.42433 3.30434 6.44427 3.53368 6.31979 3.67616C6.21056 3.80072 6.0265 3.81763 5.88189 3.72571L5.82146 3.67939L5.22116 3.11562C4.96758 3.3102 4.68078 3.46271 4.3638 3.56223L4.59711 4.57535L4.60595 4.65011C4.61257 4.82133 4.506 4.96844 4.34378 4.99554C4.15813 5.02629 3.96983 4.88859 3.92345 4.68726L3.69384 3.68573C3.38235 3.70419 3.07673 3.6686 2.78314 3.58739L2.45314 4.4516L2.41992 4.51939C2.32985 4.66533 2.15686 4.73013 2.00416 4.66555C1.82994 4.59159 1.74807 4.37646 1.82126 4.18455L2.14738 3.33057C1.84412 3.16554 1.56581 2.94849 1.3219 2.68977L0.609369 3.36983C0.471494 3.50087 0.245932 3.48629 0.105862 3.33689C-0.0340732 3.1874 -0.0354351 2.95946 0.102348 2.82825L0.869381 2.09627C0.836657 2.04241 0.80381 1.98836 0.773726 1.93247L0.648717 1.67684L0.626757 1.60821C0.591182 1.44539 0.67358 1.27425 0.831927 1.20425C0.990109 1.13445 1.17173 1.18859 1.26822 1.32419L1.30452 1.38746L1.4064 1.59652C1.95156 2.61005 3.0016 3.15133 3.99139 2.92442C5.0471 2.68229 5.78365 1.62376 5.74041 0.370503L5.74552 0.29774C5.77337 0.133653 5.91316 0.00569815 6.08599 -0.000279688Z" fill="black"/>
</svg>
