<svg width="30" height="36" viewBox="0 0 30 36" fill="none" xmlns="http://www.w3.org/2000/svg">
<path fill-rule="evenodd" clip-rule="evenodd" d="M0.388409 0H29.5962H29.947H29.9846V0.0386424V0.390104V23.3971V23.5029V23.5065V23.5084V23.5314V23.5323L29.9837 23.605V23.7494V23.7881H29.98C29.9332 25.1783 29.5072 26.6099 28.7744 27.9817C28.0224 29.3875 26.9471 30.7318 25.6258 31.903C24.2384 33.1322 22.5764 34.1737 20.7308 34.8987C19.0219 35.5703 17.1561 35.9706 15.204 35.9972L14.9919 36C13.0544 36 11.2005 35.6504 9.49996 35.0349C7.68371 34.3779 6.041 33.4192 4.65265 32.2618C3.25235 31.0943 2.111 29.7234 1.30847 28.255C0.527979 26.827 0.0697851 25.3053 0.0073458 23.7881H0V23.7494V23.4339V23.3989V0.389184V0.0386424V0H0.0385654H0.388409ZM10.813 31.7006H11.2418V30.4815L11.2877 30.2717L11.1399 30.4539L10.8654 30.6425L10.6955 30.4107L11.3979 29.843H11.6229V31.7015H12.0416V32.041H10.8121V31.7006H10.813ZM13.0507 31.5129C13.0507 31.4411 13.0599 31.3767 13.0783 31.3197C13.0966 31.2626 13.1233 31.2111 13.1563 31.1651C13.1903 31.1191 13.2307 31.0768 13.2766 31.04C13.3225 31.0032 13.3721 30.9691 13.4263 30.9378C13.3253 30.8744 13.2463 30.8008 13.1894 30.717C13.1315 30.6333 13.1031 30.5303 13.1031 30.407C13.1031 30.3269 13.1178 30.2515 13.1481 30.1816C13.1774 30.1116 13.2206 30.0509 13.2775 29.9994C13.3335 29.9479 13.4024 29.9074 13.4823 29.8789C13.5622 29.8503 13.6531 29.8356 13.7532 29.8356C13.8459 29.8356 13.9295 29.8476 14.0057 29.8724C14.0819 29.8973 14.1471 29.9322 14.2013 29.9773C14.2554 30.0224 14.2977 30.0776 14.328 30.142C14.3574 30.2073 14.373 30.2782 14.373 30.3564C14.373 30.4778 14.3454 30.5809 14.2913 30.6646C14.2371 30.7492 14.1572 30.8265 14.0525 30.8964C14.1756 30.9682 14.2683 31.0483 14.3317 31.1338C14.3941 31.2203 14.4253 31.3316 14.4253 31.4669C14.4253 31.5598 14.4088 31.6435 14.3748 31.7181C14.3408 31.7935 14.2931 31.8579 14.2316 31.9113C14.17 31.9646 14.0957 32.006 14.0094 32.0364C13.923 32.0668 13.8285 32.0815 13.7256 32.0815C13.6228 32.0815 13.53 32.0677 13.4465 32.0401C13.3629 32.0125 13.2922 31.9738 13.2335 31.9241C13.1747 31.8745 13.1297 31.8147 13.0976 31.7447C13.0663 31.6776 13.0507 31.5984 13.0507 31.5129ZM14.0433 31.4724C14.0433 31.4246 14.0323 31.3822 14.0094 31.3427C13.9864 31.304 13.9579 31.2681 13.9212 31.2359C13.8854 31.2037 13.845 31.1743 13.8009 31.1476C13.7568 31.1209 13.7119 31.0952 13.6669 31.0703C13.5704 31.1255 13.5043 31.1863 13.4685 31.2507C13.4327 31.3151 13.4143 31.3795 13.4143 31.4439C13.4143 31.5267 13.4428 31.5966 13.4988 31.6555C13.5558 31.7144 13.6338 31.7438 13.7348 31.7438C13.8275 31.7438 13.9019 31.7208 13.9579 31.6757C14.0149 31.6306 14.0433 31.5626 14.0433 31.4724ZM13.4851 30.4134C13.4851 30.4631 13.4942 30.5063 13.5126 30.5431C13.531 30.5799 13.5558 30.6121 13.5879 30.6407C13.62 30.6683 13.6558 30.694 13.6953 30.718C13.7357 30.7419 13.777 30.764 13.8202 30.7842C13.9432 30.6793 14.0048 30.5643 14.0048 30.4383C14.0048 30.3518 13.98 30.2864 13.9295 30.2423C13.879 30.1981 13.8184 30.176 13.7458 30.176C13.6558 30.176 13.5888 30.2 13.5475 30.2469C13.5062 30.2938 13.4851 30.349 13.4851 30.4134ZM15.3472 30.9572C15.3472 30.5781 15.4115 30.2966 15.541 30.1126C15.6704 29.9285 15.8559 29.8356 16.0983 29.8356C16.3573 29.8356 16.5473 29.9267 16.6685 30.1089C16.7897 30.291 16.8503 30.5735 16.8503 30.9562C16.8503 31.3371 16.7852 31.6196 16.6548 31.8055C16.5244 31.9904 16.338 32.0833 16.0956 32.0833C15.8385 32.0833 15.6502 31.9858 15.529 31.7917C15.4078 31.5975 15.3472 31.3187 15.3472 30.9572ZM15.7476 30.9572C15.7476 31.2083 15.7751 31.4025 15.8293 31.5396C15.8835 31.6766 15.9734 31.7447 16.0992 31.7447C16.2204 31.7447 16.3095 31.6822 16.3655 31.5561C16.4225 31.431 16.45 31.2304 16.45 30.9572C16.45 30.7078 16.4234 30.5155 16.3701 30.3794C16.3169 30.2432 16.225 30.1751 16.0956 30.1751C15.9725 30.1751 15.8835 30.2386 15.8293 30.3665C15.7751 30.4944 15.7476 30.6913 15.7476 30.9572ZM19.2892 31.4384H18.9503V32.0401H18.5775V31.4384H17.6437V31.2102L18.6207 29.8641H18.9503V31.1173H19.2892V31.4384ZM18.5766 30.6443L18.6042 30.3849H18.5922L18.4875 30.6075L18.1671 31.0243L18.0128 31.1421L18.2102 31.1173H18.5766V30.6443ZM10.4751 8.86567C9.56607 8.3532 9.17674 9.10029 8.28331 9.28522C7.29346 9.49039 7.02993 8.71754 6.60847 8.0275C7.3054 8.17379 7.3458 8.50225 8.25484 7.87845C8.92239 7.42026 9.76808 7.7202 10.2621 8.28419L9.71207 6.80198C11.352 6.78818 13.1995 6.57381 14.8174 6.80198L15.0222 6.83603C16.753 7.17829 18.0596 8.66326 18.0596 10.5429C18.0596 11.9184 17.2746 13.4466 16.1249 14.26V14.4329C17.6621 14.0796 19.4205 12.7897 19.5775 12.0656C19.3525 11.9773 18.8126 11.6672 18.819 11.6295C18.2176 11.1971 17.9586 10.335 18.101 9.68176C18.2433 9.02852 18.5463 8.71294 18.9797 8.44981C19.2781 8.298 19.5481 8.20691 19.8713 8.17379L27.9618 7.03016C28.0004 7.30433 28.0261 7.58311 28.0398 7.86097C28.274 12.8192 24.4505 17.0312 19.5022 17.2658C17.8099 17.3458 15.6273 16.4074 14.8587 14.8046C14.8183 14.8111 14.7779 14.8184 14.7375 14.823C14.4437 14.8552 14.17 14.9058 13.9157 14.9721C13.6577 16.0504 15.8587 16.8877 18.4104 17.2989L18.0018 17.8924C18.4848 17.7396 18.9981 17.6568 19.5316 17.6568C22.3367 17.6568 24.6112 19.9358 24.6112 22.7475C24.6112 25.5583 22.3358 27.8373 19.5316 27.8373C16.7264 27.8373 14.4519 25.5583 14.4519 22.7475C14.4519 22.4586 14.4767 22.1752 14.5226 21.9001L14.6962 21.9259L17.7713 22.1357C17.6189 22.3859 17.5308 22.6794 17.5308 22.995C17.5308 23.9058 18.2681 24.6447 19.1771 24.6447C20.0862 24.6447 20.8235 23.9058 20.8235 22.995C20.8235 22.0989 20.1091 21.3692 19.2203 21.3462L19.2148 21.3306L19.0128 21.3545C18.9935 21.3564 18.9733 21.3591 18.9531 21.361L16.304 21.6729C15.147 21.8633 14.1462 21.9397 13.2913 21.9121L9.62667 26.9209L9.16848 25.7046C6.57816 25.4865 7.47435 26.6872 8.05467 27.1785C8.1116 27.2263 8.1116 27.4269 8.05834 27.4711C7.10706 27.3984 6.27515 26.6329 6.27515 25.6374C6.27515 24.641 7.10063 23.7899 8.11895 23.7899C8.79843 23.7899 9.39161 24.1579 9.71115 24.7063L11.375 19.4482H11.1114L10.1041 20.8982C9.51097 20.2771 9.04727 19.5291 8.76079 18.6992L5.94918 15.2104C5.82981 15.4809 5.64708 15.7164 5.4212 15.8995L4.86016 14.4099C3.61689 14.3483 2.84925 14.6492 3.49385 15.5959L3.7638 15.5986L3.72891 15.1313H4.5094L4.38636 16.768L4.38728 16.78H4.38544L4.38361 16.8094H3.8492L3.84736 16.7L3.80788 16.1737C3.09625 15.9188 2.4232 15.3576 2.4232 14.4624C2.4232 13.7733 2.88874 13.0777 3.55169 12.7741L3.19175 7.97874L2.31944 6.87099H3.79411C3.73901 6.25731 3.92817 5.59211 4.28811 5.05663C3.96122 5.11184 3.66004 5.28757 3.36805 5.77336C3.17522 4.71989 4.05672 3.36557 5.25867 3.56798C6.46522 3.77223 6.3532 3.42169 6.98769 2.94786C6.9427 3.33981 6.93535 3.73451 6.84904 4.07493C8.0914 4.21018 8.03539 3.75475 8.83424 3.15764C8.691 4.39419 8.82322 5.64455 7.30907 5.99877C5.92898 6.32171 4.89781 5.51298 3.95204 6.87007H4.12008H5.91888L5.04932 7.97506L4.69672 12.6655C4.99423 12.7364 5.26418 12.8799 5.48548 13.0768L7.72962 14.4265L8.22179 16.2528H8.45226C8.68824 13.1955 11.1987 10.7766 14.2903 10.692L14.17 10.3902L11.0628 10.4049L10.4751 8.86567ZM10.3355 8.37436C10.4338 8.50041 10.5137 8.63842 10.5715 8.78195C11.8956 9.01932 14.3509 10.5494 13.531 8.37436H10.3355ZM12.4952 3.94705H13.2959V4.13934H13.5484V4.76222C13.3868 4.82938 13.272 4.98947 13.272 5.17532C13.272 5.37313 13.4006 5.54058 13.5778 5.59947L13.5805 5.60039L13.5879 5.60315H13.5888L13.5934 5.60407L13.598 5.60591L13.6007 5.60683L13.6081 5.60867L13.6108 5.60959L13.6136 5.61051L13.6164 5.61143H13.6173L13.6191 5.61235H13.6219L13.6246 5.61327L13.6292 5.61419H13.6301L13.6329 5.61511L13.6356 5.61603H13.6384H13.6393L13.6467 5.61695L13.6494 5.61787H13.6503L13.654 5.61879H13.6549H13.6577H13.6604H13.6623H13.6641H13.6669H13.6696H13.6742H13.6779H13.6806H13.6834H13.6889H13.6917H13.6962H13.6972H13.7082H13.7128H13.7137H13.7164H13.7192C13.9653 5.61879 14.1655 5.41914 14.1655 5.17256V5.16428V5.16152V5.15324L14.1645 5.14496C14.1645 5.13944 14.1636 5.13484 14.1636 5.12932L14.1627 5.12288V5.12196L14.1618 5.1146V5.11368C14.1609 5.10448 14.159 5.09436 14.1572 5.08516L14.1563 5.08148L14.1544 5.0732L14.1508 5.05755L14.1489 5.05019V5.04927L14.1462 5.04007L14.1453 5.03823L14.1443 5.03455C14.1223 4.96647 14.0847 4.90483 14.0351 4.85514L14.0342 4.85422L14.0286 4.8487L14.0231 4.84318L14.0195 4.8395L14.0167 4.83766L14.0112 4.83306L14.0057 4.82846L14.0029 4.82662L13.9947 4.82018L13.9928 4.81926C13.9882 4.81558 13.9827 4.8119 13.9781 4.80822L13.9772 4.8073L13.9735 4.80546L13.968 4.80178L13.9671 4.80086L13.9607 4.79626L13.9589 4.79534L13.957 4.7981C13.9515 4.79442 13.946 4.79166 13.9405 4.78798C13.9341 4.7843 13.9276 4.78154 13.9212 4.77786L13.9194 4.77694L13.912 4.77326H13.9111L13.9047 4.7705V4.65457C13.9047 4.28655 14.2279 3.80352 14.5943 3.79432L15.2756 3.77591L14.3023 6.32815L11.5182 6.33735L10.5467 3.78512L11.1941 3.79432C11.5614 3.79892 11.8837 4.28747 11.8837 4.65457V4.77142C11.7937 4.81374 11.7202 4.88458 11.6752 4.97291V4.97383L11.6716 4.98027L11.6706 4.98211L11.666 4.99131L11.6651 4.99407L11.6615 5.00143L11.6587 5.00879L11.6578 5.01155L11.6541 5.02167L11.6532 5.02351L11.6504 5.03087V5.03179C11.6449 5.04927 11.6403 5.06676 11.6357 5.08516C11.633 5.09988 11.6302 5.11368 11.6293 5.1284V5.13024C11.6284 5.13668 11.6275 5.14312 11.6275 5.14956V5.1514V5.15324V5.16244V5.1652V5.17348C11.6275 5.42006 11.8267 5.61971 12.0728 5.61971H12.0756H12.0783H12.0792H12.0838H12.0949H12.0958H12.1004H12.1031H12.1086H12.1114H12.1141H12.1178H12.1224H12.1252H12.1279H12.1288H12.1307H12.1334H12.1362H12.1389H12.1408H12.1426L12.1454 5.61879H12.1481L12.1527 5.61787H12.1536H12.1564L12.1591 5.61695L12.1619 5.61603L12.1665 5.61511L12.1692 5.61419H12.172L12.1747 5.61327L12.1913 5.60959L12.194 5.60867C12.3823 5.55623 12.52 5.38325 12.52 5.17808C12.52 4.99131 12.4061 4.83214 12.2436 4.76498V4.1421H12.4961V3.94705H12.4952ZM23.6718 19.346C25.8196 18.4729 27.813 17.0146 28.2685 13.3813C27.8452 15.1754 26.915 16.1682 25.7489 16.7174C24.5019 17.3063 22.985 17.3882 21.5287 17.4029C22.5121 17.8289 23.1769 18.4407 23.6718 19.346ZM29.2078 0.778368H0.777737V23.007H0.780491L0.779573 23.0456L0.776818 23.2949V23.3934V23.432C0.776818 24.894 1.18635 26.3734 1.92552 27.7655C2.68214 29.1916 3.78584 30.5284 5.14849 31.6647C6.46889 32.766 8.03263 33.6778 9.76165 34.3025C11.3805 34.8876 13.1453 35.2198 14.9919 35.2198H15.1948C17.0505 35.194 18.8264 34.8131 20.4516 34.1737C22.2082 33.4827 23.7903 32.4909 25.1116 31.3197C26.388 30.1889 27.4191 28.8944 28.128 27.5456C28.8231 26.2235 29.2069 24.8498 29.2069 23.5305C29.2069 23.4753 29.2078 23.4615 29.2078 23.4541V23.4357V23.4348H29.206V23.3961V23.3373L29.2014 23.0456L29.2005 23.007H29.2051V0.778368H29.2078Z" fill="white"/>
</svg>
