<svg width="21" height="54" viewBox="0 0 21 54" fill="none" xmlns="http://www.w3.org/2000/svg">
<path d="M10.8823 19.5653V39.0004C10.8823 40.9934 11.031 42.4849 11.3282 43.4749C11.6255 44.4714 12.1942 45.1813 13.0407 45.6046C13.8873 46.028 15.1732 46.2429 16.9116 46.2429C17.603 46.2429 18.8955 46.0996 20.7824 45.8196V53.5767C18.4496 53.8632 16.4398 54 14.7467 54C12.9115 54 11.367 53.9153 10.1263 53.746C8.88551 53.5767 7.64478 53.2315 6.40404 52.7234C5.01467 52.2089 3.88377 51.499 3.01784 50.5937C2.14544 49.6883 1.44107 48.4313 0.891786 46.8421C0.297264 45.1943 0 43.2925 0 41.1301V19.5588H10.8759L10.8823 19.5653ZM0.00646851 19.5653V0H10.8823V19.5653H0.00646851Z" fill="#3073D7"/>
</svg>
