<svg width="31" height="39" viewBox="0 0 31 39" fill="none" xmlns="http://www.w3.org/2000/svg">
<path d="M14.2268 38.4594C13.1289 38.3809 11.7777 38.2434 10.1861 38.0404C8.58803 37.8374 7.2758 37.4773 6.25589 36.9666C5.22948 36.4559 4.1706 35.6899 3.07273 34.6685C1.02641 32.9334 0 29.974 0 25.7902V13.468C0 10.1026 0.747062 7.2938 2.24769 5.04805C2.79988 4.22962 3.60541 3.47667 4.68379 2.78919C5.75567 2.10171 6.84054 1.55173 7.93841 1.1458C8.83489 0.838067 10.0367 0.582715 11.5308 0.379745C13.0315 0.176776 14.3502 0.0458318 15.5 0H19.4692C22.2626 0 25.933 0.458317 30.4739 1.37495V8.72114C25.3289 7.49677 21.3856 6.88131 18.6442 6.88131C13.6031 6.88131 11.0826 8.61638 11.0826 12.0865V25.7051C11.0826 29.6335 13.85 31.5978 19.3913 31.5978C22.0872 31.5978 25.9525 31.0347 31.0001 29.9151V37.2613C26.4592 38.1255 22.3666 38.5642 18.7222 38.5642C16.8253 38.5642 15.3246 38.5249 14.2268 38.4463V38.4594Z" fill="black"/>
</svg>
