<svg width="34" height="40" viewBox="0 0 34 40" fill="none" xmlns="http://www.w3.org/2000/svg">
<path fill-rule="evenodd" clip-rule="evenodd" d="M0.432427 0H32.9503H33.3408H33.3827V0.042936V0.433449V25.9967V26.1143V26.1184V26.1204V26.146V26.147L33.3817 26.2278V26.3883V26.4312H33.3776C33.3255 27.9759 32.8512 29.5666 32.0354 31.0908C31.1981 32.6528 30.001 34.1464 28.53 35.4478C26.9853 36.8135 25.1349 37.9708 23.0801 38.7763C21.1777 39.5226 19.1004 39.9673 16.927 39.9969L16.6909 40C14.5338 40 12.4698 39.6115 10.5766 38.9276C8.55449 38.1977 6.72562 37.1325 5.17992 35.8465C3.62094 34.5492 2.35024 33.026 1.45676 31.3944C0.587814 29.8078 0.0776937 28.1169 0.00817829 26.4312H0V26.3883V26.0376V25.9988V0.432427V0.042936V0H0.042936H0.432427ZM12.0384 35.2229H12.5158V33.8683L12.567 33.6352L12.4024 33.8377L12.0967 34.0472L11.9076 33.7896L12.6896 33.1589H12.9401V35.2239H13.4063V35.6011H12.0374V35.2229H12.0384ZM14.5297 35.0143C14.5297 34.9346 14.54 34.863 14.5604 34.7996C14.5809 34.7363 14.6105 34.679 14.6473 34.6279C14.6851 34.5768 14.7301 34.5297 14.7812 34.4889C14.8323 34.448 14.8875 34.4101 14.9479 34.3754C14.8354 34.3048 14.7475 34.2231 14.6841 34.13C14.6197 34.037 14.588 33.9225 14.588 33.7855C14.588 33.6966 14.6044 33.6128 14.6381 33.5351C14.6708 33.4574 14.7189 33.3899 14.7823 33.3327C14.8446 33.2754 14.9213 33.2304 15.0102 33.1987C15.0992 33.167 15.2004 33.1507 15.3118 33.1507C15.415 33.1507 15.5081 33.164 15.5929 33.1916C15.6778 33.2192 15.7504 33.258 15.8107 33.3081C15.871 33.3582 15.918 33.4195 15.9517 33.4911C15.9845 33.5637 16.0018 33.6424 16.0018 33.7293C16.0018 33.8642 15.9712 33.9787 15.9109 34.0718C15.8505 34.1658 15.7616 34.2517 15.6451 34.3294C15.782 34.4091 15.8853 34.4981 15.9558 34.5931C16.0254 34.6892 16.0601 34.8129 16.0601 34.9632C16.0601 35.0664 16.0417 35.1595 16.0039 35.2423C15.9661 35.3261 15.9129 35.3977 15.8444 35.457C15.7759 35.5163 15.6931 35.5623 15.597 35.596C15.5009 35.6297 15.3956 35.6461 15.2811 35.6461C15.1666 35.6461 15.0634 35.6307 14.9704 35.6001C14.8773 35.5694 14.7986 35.5265 14.7332 35.4713C14.6678 35.4161 14.6177 35.3496 14.5819 35.2719C14.5471 35.1973 14.5297 35.1094 14.5297 35.0143ZM15.6348 34.9693C15.6348 34.9162 15.6226 34.8691 15.597 34.8252C15.5715 34.7823 15.5398 34.7424 15.4989 34.7066C15.459 34.6708 15.414 34.6381 15.365 34.6085C15.3159 34.5788 15.2658 34.5502 15.2157 34.5226C15.1084 34.5839 15.0348 34.6514 14.9949 34.723C14.955 34.7945 14.9346 34.8661 14.9346 34.9376C14.9346 35.0296 14.9663 35.1073 15.0286 35.1728C15.092 35.2382 15.1789 35.2709 15.2914 35.2709C15.3946 35.2709 15.4774 35.2453 15.5398 35.1953C15.6031 35.1452 15.6348 35.0695 15.6348 34.9693ZM15.0133 33.7927C15.0133 33.8479 15.0235 33.8959 15.044 33.9368C15.0644 33.9777 15.092 34.0135 15.1278 34.0452C15.1636 34.0759 15.2034 34.1045 15.2474 34.1311C15.2924 34.1576 15.3384 34.1822 15.3864 34.2047C15.5234 34.0881 15.5919 33.9603 15.5919 33.8203C15.5919 33.7242 15.5643 33.6516 15.5081 33.6025C15.4519 33.5535 15.3844 33.5289 15.3036 33.5289C15.2034 33.5289 15.1288 33.5555 15.0828 33.6076C15.0368 33.6598 15.0133 33.7211 15.0133 33.7927ZM17.0865 34.3969C17.0865 33.9757 17.158 33.6628 17.3022 33.4584C17.4463 33.2539 17.6528 33.1507 17.9227 33.1507C18.211 33.1507 18.4226 33.2519 18.5576 33.4543C18.6925 33.6567 18.76 33.9706 18.76 34.3958C18.76 34.8191 18.6874 35.1329 18.5422 35.3394C18.3971 35.5449 18.1895 35.6481 17.9196 35.6481C17.6334 35.6481 17.4238 35.5398 17.2889 35.3241C17.154 35.1084 17.0865 34.7986 17.0865 34.3969ZM17.5322 34.3969C17.5322 34.6759 17.5629 34.8916 17.6232 35.044C17.6835 35.1963 17.7837 35.2719 17.9237 35.2719C18.0587 35.2719 18.1578 35.2024 18.2202 35.0624C18.2836 34.9233 18.3143 34.7005 18.3143 34.3969C18.3143 34.1198 18.2846 33.9062 18.2253 33.7549C18.166 33.6036 18.0638 33.5279 17.9196 33.5279C17.7827 33.5279 17.6835 33.5984 17.6232 33.7405C17.5629 33.8826 17.5322 34.1014 17.5322 34.3969ZM21.4752 34.9315H21.0979V35.6001H20.6829V34.9315H19.6432V34.678L20.7309 33.1824H21.0979V34.5747H21.4752V34.9315ZM20.6819 34.0493L20.7125 33.761H20.6992L20.5827 34.0084L20.2259 34.4715L20.0542 34.6023L20.274 34.5747H20.6819V34.0493ZM11.6622 9.85075C10.6502 9.28133 10.2167 10.1114 9.22204 10.3169C8.12002 10.5449 7.82662 9.68616 7.35739 8.91944C8.13331 9.08199 8.17829 9.44694 9.19035 8.75383C9.93355 8.24473 10.8751 8.578 11.4251 9.20466L10.8127 7.55776C12.6385 7.54242 14.6954 7.30423 16.4966 7.55776L16.7246 7.59558C18.6516 7.97587 20.1063 9.62584 20.1063 11.7144C20.1063 13.2427 19.2323 14.9407 17.9524 15.8444V16.0366C19.6637 15.644 21.6213 14.2108 21.7962 13.4063C21.5457 13.3081 20.9446 12.9636 20.9517 12.9217C20.2822 12.4412 19.9939 11.4833 20.1523 10.7575C20.3108 10.0317 20.6481 9.68105 21.1306 9.38867C21.4629 9.22 21.7634 9.11879 22.1233 9.08199L31.1306 7.81129C31.1736 8.11593 31.2022 8.42568 31.2175 8.73441C31.4782 14.2435 27.2214 18.9235 21.7123 19.1842C19.8283 19.2732 17.3983 18.2304 16.5426 16.4496C16.4977 16.4568 16.4527 16.4649 16.4077 16.47C16.0806 16.5058 15.7759 16.5621 15.4927 16.6357C15.2055 17.8338 17.6559 18.7641 20.4968 19.221L20.0419 19.8804C20.5796 19.7107 21.1511 19.6187 21.745 19.6187C24.8681 19.6187 27.4003 22.1509 27.4003 25.275C27.4003 28.3981 24.8671 30.9303 21.745 30.9303C18.622 30.9303 16.0898 28.3981 16.0898 25.275C16.0898 24.954 16.1174 24.6391 16.1685 24.3335L16.3617 24.3621L19.7853 24.5952C19.6156 24.8732 19.5175 25.1993 19.5175 25.55C19.5175 26.5621 20.3384 27.3829 21.3504 27.3829C22.3625 27.3829 23.1834 26.5621 23.1834 25.55C23.1834 24.5543 22.3881 23.7436 21.3985 23.7181L21.3924 23.7007L21.1675 23.7273C21.146 23.7293 21.1235 23.7324 21.101 23.7344L18.1517 24.081C16.8636 24.2926 15.7493 24.3774 14.7976 24.3468L10.7176 29.9121L10.2075 28.5606C7.32366 28.3183 8.32141 29.6524 8.96749 30.1983C9.03087 30.2515 9.03087 30.4743 8.97158 30.5234C7.91249 30.4426 6.9863 29.5921 6.9863 28.486C6.9863 27.3789 7.90534 26.4332 9.03905 26.4332C9.79554 26.4332 10.4559 26.8422 10.8117 27.4514L12.6641 21.6091H12.3707L11.2492 23.2202C10.5888 22.5302 10.0726 21.699 9.75363 20.7769L6.62339 16.9004C6.49049 17.201 6.28706 17.4627 6.03558 17.6661L5.41096 16.011C4.02678 15.9425 3.17215 16.2768 3.8898 17.3288L4.19035 17.3318L4.1515 16.8125H5.02045L4.88346 18.6312L4.88448 18.6444H4.88244L4.88039 18.6772H4.28542L4.28338 18.5555L4.23942 17.9708C3.44715 17.6876 2.69781 17.064 2.69781 16.0693C2.69781 15.3036 3.21611 14.5308 3.9542 14.1934L3.55347 8.86526L2.58229 7.63443H4.22409C4.16275 6.95257 4.37334 6.21345 4.77408 5.61848C4.41014 5.67982 4.07483 5.87508 3.74974 6.41484C3.53506 5.24433 4.51646 3.73952 5.85463 3.96442C7.19792 4.19137 7.0732 3.80188 7.7796 3.2754C7.7295 3.7109 7.72132 4.14946 7.62523 4.5277C9.00838 4.67798 8.94602 4.17195 9.83541 3.50848C9.67594 4.88244 9.82314 6.27172 8.1374 6.6653C6.6009 7.02413 5.45287 6.12554 4.39992 7.63341H4.587H6.58965L5.62155 8.86117L5.22899 14.0728C5.56021 14.1515 5.86076 14.311 6.10714 14.5297L8.6056 16.0294L9.15355 18.0587H9.41014C9.67287 14.6616 12.4678 11.974 15.9098 11.88L15.7759 11.5447L12.3165 11.561L11.6622 9.85075ZM11.5069 9.30484C11.6162 9.4449 11.7052 9.59824 11.7696 9.75772C13.2437 10.0215 15.9773 11.7215 15.0644 9.30484H11.5069ZM13.9113 4.38561H14.8027V4.59926H15.0838V5.29135C14.9039 5.36598 14.7761 5.54386 14.7761 5.75036C14.7761 5.97015 14.9192 6.15621 15.1165 6.22163L15.1196 6.22265L15.1278 6.22572H15.1288L15.1339 6.22674L15.139 6.22879L15.1421 6.22981L15.1503 6.23185L15.1533 6.23288L15.1564 6.2339L15.1595 6.23492H15.1605L15.1625 6.23594H15.1656L15.1687 6.23697L15.1738 6.23799H15.1748L15.1779 6.23901L15.1809 6.24003H15.184H15.185L15.1932 6.24106L15.1963 6.24208H15.1973L15.2014 6.2431H15.2024H15.2055H15.2085H15.2106H15.2126H15.2157H15.2188H15.2239H15.228H15.231H15.2341H15.2402H15.2433H15.2484H15.2494H15.2617H15.2668H15.2678H15.2709H15.274C15.5479 6.2431 15.7708 6.02126 15.7708 5.74729V5.73809V5.73502V5.72582L15.7698 5.71662C15.7698 5.71049 15.7688 5.70538 15.7688 5.69924L15.7677 5.69209V5.69106L15.7667 5.68289V5.68186C15.7657 5.67164 15.7636 5.6604 15.7616 5.65017L15.7606 5.64608L15.7585 5.63688L15.7544 5.61951L15.7524 5.61133V5.6103L15.7493 5.60008L15.7483 5.59804L15.7473 5.59395C15.7228 5.5183 15.6808 5.44981 15.6256 5.3946L15.6246 5.39358L15.6185 5.38745L15.6124 5.38131L15.6083 5.37722L15.6052 5.37518L15.5991 5.37007L15.5929 5.36496L15.5899 5.36291L15.5807 5.35576L15.5786 5.35473C15.5735 5.35064 15.5674 5.34655 15.5623 5.34247L15.5612 5.34144L15.5571 5.3394L15.551 5.33531L15.55 5.33429L15.5428 5.32918L15.5408 5.32815L15.5387 5.33122C15.5326 5.32713 15.5265 5.32406 15.5203 5.31998C15.5132 5.31589 15.506 5.31282 15.4989 5.30873L15.4968 5.30771L15.4887 5.30362H15.4876L15.4805 5.30055V5.17174C15.4805 4.76283 15.8403 4.22613 16.2482 4.21591L17.0067 4.19546L15.9231 7.03128L12.8236 7.0415L11.742 4.20568L12.4627 4.21591C12.8716 4.22102 13.2304 4.76385 13.2304 5.17174V5.30157C13.1302 5.3486 13.0485 5.42732 12.9984 5.52545V5.52648L12.9943 5.53363L12.9933 5.53568L12.9881 5.5459L12.9871 5.54897L12.983 5.55715L12.98 5.56532L12.9789 5.56839L12.9749 5.57964L12.9738 5.58168L12.9708 5.58986V5.59088C12.9646 5.6103 12.9595 5.62973 12.9544 5.65017C12.9513 5.66653 12.9483 5.68186 12.9473 5.69822V5.70027C12.9462 5.70742 12.9452 5.71458 12.9452 5.72173V5.72378V5.72582V5.73605V5.73911V5.74831C12.9452 6.02229 13.167 6.24412 13.441 6.24412H13.4441H13.4471H13.4482H13.4533H13.4655H13.4666H13.4717H13.4748H13.4809H13.484H13.487H13.4911H13.4962H13.4993H13.5024H13.5034H13.5054H13.5085H13.5116H13.5146H13.5167H13.5187L13.5218 6.2431H13.5248L13.53 6.24208H13.531H13.534L13.5371 6.24106L13.5402 6.24003L13.5453 6.23901L13.5484 6.23799H13.5514L13.5545 6.23697L13.5729 6.23288L13.576 6.23185C13.7855 6.17358 13.9389 5.98139 13.9389 5.75342C13.9389 5.5459 13.8121 5.36905 13.6312 5.29442V4.60233H13.9123V4.38561H13.9113ZM26.3545 21.4956C28.7457 20.5255 30.965 18.9051 31.4721 14.8681C31.0008 16.8616 29.9652 17.9646 28.6669 18.5749C27.2787 19.2292 25.5899 19.3202 23.9685 19.3365C25.0634 19.8099 25.8035 20.4897 26.3545 21.4956ZM32.5179 0.864854H0.865876V25.5633H0.868943L0.867921 25.6062L0.864854 25.8833V25.9926V26.0356C0.864854 27.66 1.32079 29.3038 2.14373 30.8505C2.9861 32.4351 4.21488 33.9205 5.73196 35.183C7.202 36.4067 8.94296 37.4198 10.8679 38.1139C12.6702 38.7641 14.635 39.1331 16.6909 39.1331H16.9168C18.9828 39.1045 20.9599 38.6813 22.7694 37.9708C24.725 37.203 26.4864 36.101 27.9575 34.7996C29.3785 33.5432 30.5265 32.1049 31.3157 30.6062C32.0896 29.1372 32.5169 27.6109 32.5169 26.145C32.5169 26.0836 32.5179 26.0683 32.5179 26.0601V26.0397V26.0386H32.5159V25.9957V25.9303L32.5107 25.6062L32.5097 25.5633H32.5148V0.864854H32.5179Z" fill="white"/>
</svg>
