<svg width="28" height="54" viewBox="0 0 28 54" fill="none" xmlns="http://www.w3.org/2000/svg">
<path d="M17.3757 53.6091C16.1388 53.4598 14.9018 53.1546 13.6648 52.7001C12.2796 52.2455 11.1522 51.6157 10.2889 50.804C9.41911 49.9923 8.71686 48.882 8.16923 47.4664C7.57651 45.9989 7.28015 44.3042 7.28015 42.3821V23.1813H0V16.3503H7.28015V0H18.1231V16.3503H27.9996V23.1813H18.1231V40.4861C18.1231 42.2587 18.2713 43.5834 18.5676 44.473C18.864 45.3561 19.4309 45.9924 20.2749 46.369C21.1189 46.7457 22.401 46.9405 24.134 46.9405C24.8234 46.9405 26.1119 46.8171 27.9932 46.5638V53.4728C25.6674 53.726 23.6637 53.8494 21.9758 53.8494C20.1461 53.8494 18.6063 53.7715 17.3693 53.6221L17.3757 53.6091Z" fill="black"/>
</svg>
