<svg width="57" height="68" viewBox="0 0 57 68" fill="none" xmlns="http://www.w3.org/2000/svg">
<path d="M0 0V44.9279H0.012411C0.136521 47.7949 1.00529 50.6742 2.4822 53.3674C3.99635 56.1475 6.15587 58.7414 8.81183 60.9381C11.4306 63.1225 14.5457 64.9345 17.9836 66.1756C21.198 67.3422 24.7103 68 28.3716 68H28.7812C32.4672 67.9504 36.0044 67.1933 39.2437 65.9149C42.7312 64.5497 45.8711 62.5888 48.5023 60.2679C51.0093 58.0464 53.0447 55.5145 54.4596 52.8585C55.8496 50.2646 56.6563 47.559 56.7432 44.9279H56.7556V0H0ZM55.2787 44.4563C55.2787 46.9385 54.5589 49.5324 53.2433 52.0394C51.9029 54.5837 49.942 57.0286 47.5342 59.1633C45.0272 61.3725 42.0361 63.2466 38.71 64.5497C35.632 65.766 32.2687 66.4859 28.7563 66.5355H28.3716C24.8841 66.5355 21.5455 65.9025 18.48 64.798C15.2035 63.6189 12.2497 61.8938 9.74265 59.8087C7.16116 57.674 5.07611 55.1422 3.64884 52.449C2.2464 49.8178 1.47691 47.0254 1.47691 44.2577V1.47691H55.2787V44.4563Z" fill="black"/>
</svg>
